<svg width="445" height="299" viewBox="0 0 445 299" fill="none" xmlns="http://www.w3.org/2000/svg">
<path d="M363.582 84.3401L428.323 110.466L367.149 115.982L408.185 180.995L353.418 139.228L369.767 215.467L336.48 158.602L300.825 227.385L300.332 158.526L231.39 170.444L295.979 133.345L228.775 107.644L298.716 108.836L236.647 65.1691L308.182 93.9171L272.836 36.1426L332.188 89.7671L319.448 16.067L363.582 84.3401Z" fill="white"/>
<path d="M363.582 84.3401L428.323 110.466L367.149 115.982L408.185 180.995L353.418 139.228L369.767 215.467L336.48 158.602L300.825 227.385L300.332 158.526L231.39 170.444L295.979 133.345L228.775 107.644L298.716 108.836L236.647 65.1691L308.182 93.9171L272.836 36.1426L332.188 89.7671L319.448 16.067L363.582 84.3401Z" fill="white"/>
<path d="M16.8615 287.228H3.36498V262.36H16.4514C21.1863 262.36 23.6097 265.38 23.6097 268.698C23.6097 271.83 21.671 273.917 19.3222 274.402C21.9693 274.812 24.0944 277.385 24.0944 280.517C24.0944 284.245 21.5964 287.228 16.8615 287.228ZM15.2956 272.314C17.0852 272.314 18.2037 271.196 18.2037 269.63C18.2037 268.064 17.0852 266.908 15.2956 266.908H8.65919V272.314H15.2956ZM15.482 282.642C17.4953 282.642 18.6884 281.56 18.6884 279.771C18.6884 278.205 17.5699 276.863 15.482 276.863H8.65919V282.642H15.482ZM43.5221 287.228H38.7872V285.363C37.5568 286.817 35.4317 287.675 33.0829 287.675C30.2121 287.675 26.8193 285.736 26.8193 281.71C26.8193 277.497 30.2121 275.893 33.0829 275.893C35.469 275.893 37.5941 276.676 38.7872 278.093V275.67C38.7872 273.843 37.2213 272.65 34.8352 272.65C32.8964 272.65 31.1069 273.358 29.5782 274.775L27.7887 271.606C29.9884 269.667 32.8219 268.772 35.6554 268.772C39.7565 268.772 43.5221 270.413 43.5221 275.595V287.228ZM34.9843 284.469C36.5129 284.469 38.0042 283.947 38.7872 282.903V280.666C38.0042 279.622 36.5129 279.1 34.9843 279.1C33.1201 279.1 31.5915 280.069 31.5915 281.821C31.5915 283.499 33.1201 284.469 34.9843 284.469ZM62.1253 287.228H47.4357V283.686L55.5634 273.358H47.4357V269.22H61.9761V272.65L53.7366 283.089H62.1253V287.228ZM82.9858 287.228H78.2508V276.266C78.2508 273.768 76.9459 272.985 74.8953 272.985C73.0685 272.985 71.6144 274.029 70.7942 275.111V287.228H66.0592V262.36H70.7942V271.569C71.95 270.189 74.187 268.772 77.1323 268.772C81.0843 268.772 82.9858 270.935 82.9858 274.439V287.228ZM96.1496 287.675C90.669 287.675 86.5306 283.984 86.5306 278.205C86.5306 272.985 90.3707 268.772 95.8514 268.772C101.22 268.772 104.874 272.799 104.874 278.69V279.734H91.4892C91.7875 282.008 93.6144 283.909 96.6716 283.909C98.2002 283.909 100.325 283.238 101.481 282.12L103.569 285.177C101.779 286.817 98.9459 287.675 96.1496 287.675ZM100.288 276.527C100.176 274.812 98.9832 272.538 95.8514 272.538C92.906 272.538 91.6384 274.738 91.4147 276.527H100.288ZM125.183 287.228H120.448V276.341C120.448 273.843 119.143 272.985 117.13 272.985C115.266 272.985 113.812 274.029 113.029 275.111V287.228H108.294V269.22H113.029V271.569C114.185 270.189 116.384 268.772 119.33 268.772C123.282 268.772 125.183 271.009 125.183 274.514V287.228ZM138.236 287.675C132.308 287.675 128.729 283.35 128.729 278.205C128.729 273.097 132.308 268.772 138.236 268.772C144.202 268.772 147.781 273.097 147.781 278.205C147.781 283.35 144.202 287.675 138.236 287.675ZM138.236 283.462C141.182 283.462 142.859 281.039 142.859 278.205C142.859 275.409 141.182 272.985 138.236 272.985C135.291 272.985 133.65 275.409 133.65 278.205C133.65 281.039 135.291 283.462 138.236 283.462ZM161.062 287.228H155.954L148.721 269.22H153.791L158.489 281.747L163.187 269.22H168.295L161.062 287.228ZM185.955 287.228H181.22V285.363C179.99 286.817 177.865 287.675 175.516 287.675C172.645 287.675 169.253 285.736 169.253 281.71C169.253 277.497 172.645 275.893 175.516 275.893C177.902 275.893 180.027 276.676 181.22 278.093V275.67C181.22 273.843 179.655 272.65 177.268 272.65C175.33 272.65 173.54 273.358 172.012 274.775L170.222 271.606C172.422 269.667 175.255 268.772 178.089 268.772C182.19 268.772 185.955 270.413 185.955 275.595V287.228ZM177.418 284.469C178.946 284.469 180.438 283.947 181.22 282.903V280.666C180.438 279.622 178.946 279.1 177.418 279.1C175.553 279.1 174.025 280.069 174.025 281.821C174.025 283.499 175.553 284.469 177.418 284.469ZM205.597 287.228H200.303V262.36H205.597V287.228ZM215.157 287.228H210.422V269.22H215.157V271.68C216.425 270.077 218.662 268.772 220.899 268.772V273.395C220.563 273.321 220.116 273.284 219.594 273.284C218.028 273.284 215.94 274.178 215.157 275.334V287.228ZM226.206 267.281C224.677 267.281 223.373 266.013 223.373 264.448C223.373 262.882 224.677 261.651 226.206 261.651C227.772 261.651 229.04 262.882 229.04 264.448C229.04 266.013 227.772 267.281 226.206 267.281ZM228.592 287.228H223.857V269.22H228.592V287.228ZM250.177 287.228H245.442V276.341C245.442 273.843 244.137 272.985 242.123 272.985C240.259 272.985 238.805 274.029 238.022 275.111V287.228H233.287V269.22H238.022V271.569C239.178 270.189 241.378 268.772 244.323 268.772C248.275 268.772 250.177 271.009 250.177 274.514V287.228ZM270.425 287.228H265.69V285.363C264.46 286.817 262.335 287.675 259.986 287.675C257.115 287.675 253.722 285.736 253.722 281.71C253.722 277.497 257.115 275.893 259.986 275.893C262.372 275.893 264.497 276.676 265.69 278.093V275.67C265.69 273.843 264.124 272.65 261.738 272.65C259.799 272.65 258.01 273.358 256.481 274.775L254.692 271.606C256.891 269.667 259.725 268.772 262.558 268.772C266.659 268.772 270.425 270.413 270.425 275.595V287.228ZM261.887 284.469C263.416 284.469 264.907 283.947 265.69 282.903V280.666C264.907 279.622 263.416 279.1 261.887 279.1C260.023 279.1 258.494 280.069 258.494 281.821C258.494 283.499 260.023 284.469 261.887 284.469Z" fill="white"/>
<path fill-rule="evenodd" clip-rule="evenodd" d="M40.5999 94.3012C37.6491 95.2368 34.7995 98.2044 33.8024 101.381C33.1568 103.437 33.0618 104.877 33.2157 110.278C33.479 119.532 34.181 121.152 42.4351 131.565C45.0159 134.82 47.7319 138.695 48.4708 140.176C49.7333 142.706 49.8151 143.152 49.8341 147.619C49.8587 153.413 49.3221 154.648 46.7836 154.638C43.5903 154.625 43.2961 153.806 43.2961 144.927V137.696H37.7851H32.2742V145.514C32.2742 156.375 33.0398 159.413 36.5299 162.399C39.006 164.517 42.5326 165.394 47.6018 165.153C57.9013 164.663 62.023 158.755 61.4109 145.361C61.0319 137.068 59.9967 134.858 51.2382 123.643C44.7624 115.351 44.4135 114.655 44.2117 109.639C44.0125 104.681 44.5547 103.372 46.8031 103.382C47.5556 103.386 48.4132 103.542 48.7086 103.73C49.668 104.338 50.0787 106.868 50.0787 112.165V117.358H55.1658H60.2528V109.919C60.2528 101.569 59.8933 99.5001 58.0548 97.271C55.7745 94.5059 53.9915 93.8856 47.9592 93.7593C44.0994 93.6784 42.1006 93.8254 40.5999 94.3012ZM0.904297 129.222V164.39H6.20327H11.5022V149.136V133.883H15.1055H18.7088V149.136V164.39H24.2223H29.7358L29.6273 129.328L29.5187 94.2661L24.1138 94.1474L18.7088 94.0288V108.253V122.477L15.2115 122.354L11.7142 122.231L11.6027 108.142L11.4908 94.0542H6.19776H0.904297V129.222ZM64.3508 94.3368C64.1952 94.4919 64.068 110.317 64.068 129.505V164.39H76.5736H89.0792V159.093V153.797H82.0845H75.0899V143.628V133.459H80.3889H85.6878V128.163V122.866H80.3889H75.0899V113.757V104.647H81.8726H88.6553V99.3505V94.0542H76.6444C70.0381 94.0542 64.5059 94.1813 64.3508 94.3368ZM107.561 95.2194C107.431 95.86 106.945 99.5306 106.483 103.376C105.316 113.082 102.957 132.374 100.947 148.657C100.015 156.199 99.2532 162.825 99.2532 163.38C99.2532 164.385 99.2782 164.39 104.068 164.39H108.883L109.386 159.199C109.662 156.344 109.997 153.389 110.129 152.632L110.37 151.255H114.05H117.731L118.262 156.657C118.553 159.628 118.894 162.584 119.018 163.225L119.245 164.39H124.451C129.613 164.39 129.657 164.382 129.506 163.436C129.423 162.912 127.449 147.706 125.119 129.646C122.79 111.585 120.778 96.1888 120.647 95.4312L120.41 94.0542H114.105H107.799L107.561 95.2194ZM131.047 129.184V164.39H136.558H142.069V148.654V132.919L144.506 133.205C145.847 133.362 147.23 133.776 147.58 134.125C148.11 134.654 148.252 137.092 148.434 148.833C148.553 156.574 148.812 163.24 149.009 163.648C149.322 164.298 150.047 164.39 154.877 164.39C159.954 164.39 160.365 164.331 160.097 163.648C159.286 161.583 159.03 157.054 159.028 144.745C159.026 131.895 158.984 131.169 158.151 129.689C157.67 128.834 156.741 127.774 156.086 127.334L154.895 126.534L156.173 125.459C158.745 123.296 159.006 122.003 159.014 111.426C159.018 106.144 158.825 101.19 158.583 100.317C157.981 98.1506 156.24 96.2117 153.953 95.1605C152.203 94.3567 151.089 94.2644 141.539 94.1279L131.047 93.9784V129.184ZM161.145 99.3505V104.647H165.596H170.047V134.518V164.39H175.346H180.645V134.518V104.647H185.097H189.548V99.3505V94.0542H175.346H161.145V99.3505ZM207.986 94.5838C207.882 94.8753 207.215 99.8802 206.504 105.706C205.792 111.532 204.743 120.112 204.172 124.773C203.601 129.434 202.372 139.539 201.44 147.23C200.508 154.92 199.643 161.927 199.517 162.801L199.288 164.39H204.168C206.852 164.39 209.066 164.247 209.087 164.072C209.109 163.897 209.443 160.989 209.829 157.61L210.532 151.467L214.204 151.345L217.876 151.223L218.104 152.404C218.23 153.054 218.558 156.016 218.834 158.987L219.335 164.39H224.578C229.01 164.39 229.82 164.289 229.82 163.739C229.82 163.381 228.874 155.897 227.717 147.108C226.56 138.319 224.54 122.93 223.226 112.91C221.912 102.89 220.749 94.5482 220.641 94.3728C220.532 94.1974 217.683 94.0542 214.309 94.0542C209.783 94.0542 208.124 94.1932 207.986 94.5838ZM231.516 129.222V164.39H236.386H241.257L241.367 145.333L241.478 126.277L243.671 134.847C244.877 139.56 247.05 148.135 248.5 153.903L251.135 164.39H255.527H259.918V129.222V94.0542H255.043H250.168L250.131 112.168L250.094 130.281L248.703 124.773C247.938 121.744 245.933 113.593 244.247 106.66L241.18 94.0542H236.348H231.516V129.222ZM263.733 129.21V164.444L274.225 164.31L284.717 164.178L286.764 162.975C289.193 161.548 291.053 158.841 291.723 155.755C292.049 154.255 292.153 145.61 292.059 127.739L291.924 101.893L290.869 99.8272C289.662 97.4655 287.72 95.7045 285.442 94.9054C284.391 94.5368 280.528 94.291 273.801 94.1648L263.733 93.9762V129.21ZM147.541 104.851C148.109 105.419 148.216 106.763 148.216 113.386C148.216 121.136 148.202 121.258 147.215 122.057C146.535 122.607 145.55 122.866 144.141 122.866H142.069V113.274V103.681L144.467 103.928C145.801 104.066 147.166 104.476 147.541 104.851ZM278.926 104.263C279.929 104.612 280.367 105.107 280.708 106.276C281.01 107.311 281.117 115.168 281.031 129.952C280.904 151.612 280.884 152.098 280.032 152.948C279.484 153.495 278.347 153.914 276.959 154.078L274.755 154.339V129.069V103.799H276.176C276.957 103.799 278.194 104.008 278.926 104.263ZM115.129 127.739C115.725 133.332 116.316 138.528 116.442 139.285L116.672 140.662H113.973H111.275L111.576 138.014C111.742 136.558 112.317 131.184 112.852 126.072C113.388 120.961 113.876 116.956 113.936 117.174C113.997 117.392 114.533 122.146 115.129 127.739ZM216.651 139.497C216.678 140.644 216.638 140.662 214.087 140.662H211.495L211.741 138.861C211.876 137.871 212.386 133.152 212.875 128.375C213.364 123.597 213.879 119.212 214.02 118.629C214.241 117.716 216.576 136.229 216.651 139.497ZM70.8507 165.06C64.3164 166.216 61.232 169.348 60.2176 175.858C59.7127 179.1 59.9433 185.05 60.7064 188.458C61.4652 191.849 63.7378 195.675 68.9842 202.396C71.8584 206.078 74.7419 210.044 75.3917 211.209C76.5176 213.228 76.5736 213.592 76.5736 218.897C76.5736 223.778 76.474 224.576 75.766 225.358C74.5871 226.662 72.4213 226.553 71.3056 225.135C70.4933 224.102 70.4268 223.463 70.4268 216.66V209.303H64.8798H59.3333L59.4778 218.518C59.6122 227.063 59.6936 227.888 60.5966 229.853C62.3202 233.603 64.7158 235.446 69.0698 236.368C73.1437 237.231 78.1675 236.788 81.3329 235.287C86.6107 232.783 89.1233 225.907 88.4454 215.819C87.9473 208.406 86.9269 206.323 78.3295 195.173C75.8415 191.946 73.3361 188.506 72.763 187.528C70.7935 184.169 70.5425 176.452 72.359 175.124C73.362 174.391 74.7168 174.405 75.7508 175.159C76.4854 175.695 76.5961 176.454 76.7856 182.256L76.9975 188.753L82.1905 188.872L87.3835 188.991L87.3733 181.669C87.3674 177.642 87.1665 173.489 86.9265 172.44C86.1605 169.091 83.8179 166.59 80.5576 165.643C78.9191 165.166 72.4468 164.778 70.8507 165.06ZM115.752 165.213C110.632 166.154 107.176 169.705 106.035 175.197C105.732 176.656 105.621 185.931 105.702 202.984C105.834 230.722 105.695 229.084 108.234 232.882C109.827 235.265 113.004 236.844 116.206 236.844C119.366 236.844 122.553 234.985 124.723 231.875L126.269 229.661L127.068 232.723L127.868 235.785L130.941 235.909L134.014 236.034V214.618V193.202H126.596H119.177V198.71V204.218H121.509H123.84V213.568C123.84 223.035 123.685 224.13 122.182 225.284C121.139 226.085 118.86 225.934 117.929 225.004C117.476 224.55 116.989 223.55 116.848 222.779C116.708 222.009 116.649 211.399 116.719 199.202L116.846 177.026L117.847 176.216C119.291 175.048 121.053 175.174 122.114 176.523C122.895 177.515 122.993 178.22 122.993 182.878V188.117H128.339H133.687L133.504 180.808C133.362 175.146 133.158 173.123 132.595 171.827C130.587 167.204 127.55 165.354 121.471 165.047C119.394 164.943 116.82 165.017 115.752 165.213ZM189.327 165.205C185.15 165.871 182.297 168.021 180.573 171.805C179.14 174.949 178.931 183.638 180.169 188.533C181.305 193.021 182.483 195.008 188.718 202.947C195.186 211.182 195.984 212.8 196.225 218.176C196.448 223.133 195.834 225.398 194.105 226.005C192.56 226.548 190.777 225.901 190.093 224.549C189.729 223.831 189.558 221.245 189.554 216.4L189.548 209.303H184.037H178.526V216.64C178.526 224.978 178.97 228.124 180.56 231.059C182.417 234.487 185.703 236.249 191.083 236.704C199.723 237.434 205.286 233.814 207.139 226.255C207.733 223.833 207.841 222.03 207.677 217.219C207.376 208.35 206.714 206.875 198.048 195.744C191.216 186.968 190.607 185.71 190.607 180.348C190.607 176.479 190.679 176.122 191.608 175.37C192.874 174.344 193.85 174.343 195.118 175.368C196.077 176.143 196.124 176.441 196.255 182.584L196.392 188.99L201.554 188.872L206.716 188.753L206.691 180.914C206.668 173.718 206.587 172.897 205.703 170.893C204.553 168.287 203.532 167.257 200.978 166.128C198.776 165.154 192.678 164.671 189.327 165.205ZM220.918 165.078C216.214 165.989 213.518 168.004 211.629 172.016L210.532 174.347V200.871V227.396L212.019 230.319C214.544 235.284 218.537 237.122 226.018 236.765C232.208 236.469 235.494 234.299 237.569 229.136C238.393 227.088 238.488 225.909 238.635 215.976L238.796 205.066H233.495H228.195L228.053 214.636L227.912 224.207L226.723 225.229C224.547 227.099 222.091 226.135 221.558 223.203C221.418 222.433 221.36 211.764 221.428 199.496C221.548 178.251 221.592 177.147 222.361 176.298C223.23 175.337 225.11 175.124 226.438 175.835C227.71 176.515 228.119 178.963 228.122 185.893L228.124 192.354H233.465H238.805L238.642 183.139C238.491 174.572 238.41 173.765 237.482 171.683C236.291 169.008 233.543 166.445 231.072 165.705C229.185 165.14 222.673 164.738 220.918 165.078ZM284.471 165.213C278.85 166.246 275.423 170.131 274.36 176.68C273.783 180.236 273.772 220.742 274.348 224.768C275.118 230.162 278.281 234.638 282.247 235.946C285.142 236.901 291.234 237.043 294.059 236.222C298.775 234.852 301.11 232.432 302.659 227.31C303.504 224.516 303.92 183.28 303.16 177.575C302.336 171.387 300.19 168.002 295.886 166.104C293.631 165.109 287.601 164.639 284.471 165.213ZM317.087 165.218C311.6 166.22 308.343 169.654 306.99 175.861C306.628 177.522 306.527 184.805 306.625 202.1C306.75 224.142 306.823 226.204 307.543 228.123C309.993 234.642 314.608 237.254 322.781 236.744C328.54 236.385 331.888 234.429 334.049 230.159C335.673 226.949 335.799 224.815 335.799 200.551C335.799 180.595 335.698 176.623 335.138 174.46C334.014 170.125 331.777 167.391 328.285 166.085C325.702 165.119 320.031 164.68 317.087 165.218ZM0.904297 200.835V236.064L10.9723 235.924C20.5224 235.792 21.1438 235.734 23.0544 234.793C25.4203 233.629 27.2927 231.509 28.3343 228.817C29.0096 227.071 29.0948 224.548 29.2262 202.312C29.3297 184.823 29.2284 176.908 28.8744 174.863C28.2182 171.072 26.4377 168.402 23.597 166.95C21.5381 165.897 21.2596 165.87 11.1974 165.74L0.904297 165.606V200.835ZM32.6981 200.829V235.996H45.2037H57.7093V230.488V224.98H50.7146H43.72V215.023V205.066H49.019H54.3179V199.557V194.049H49.019H43.72V185.151V176.254H50.5027H57.2853V170.957V165.661H44.9917H32.6981V200.829ZM91.1988 200.829V235.996H96.7097H102.221V200.829V165.661H96.7097H91.1988V200.829ZM137.509 200.723L137.618 235.785L142.599 235.904L147.58 236.023L147.618 216.837L147.657 197.651L151.828 214.175C154.122 223.264 156.319 231.892 156.711 233.348L157.424 235.996H161.828H166.232V200.829V165.661H161.357H156.482L156.438 183.774C156.4 199.444 156.319 201.631 155.839 199.981C155.533 198.933 153.511 190.781 151.346 181.868L147.409 165.661H142.405H137.401L137.509 200.723ZM241.69 200.829V235.996H247.2H252.711V220.531V205.066H256.315H259.918V220.531V235.996H265.217H270.516V200.829V165.661H265.217H259.918V179.643V193.626H256.315H252.711V179.643V165.661H247.2H241.69V200.829ZM339.191 200.835V236.01L351.166 235.897L363.142 235.785L363.261 230.382L363.379 224.98H356.796H350.212V195.32V165.661H344.702H339.191V200.835ZM17.1819 176.814C18.0611 177.995 18.073 178.311 18.073 200.405C18.073 222.499 18.0611 222.815 17.1819 223.996C16.4154 225.024 15.9559 225.21 13.8965 225.319L11.5022 225.446V200.405V175.364L13.8965 175.491C15.9559 175.6 16.4154 175.785 17.1819 176.814ZM291.096 176.527L292.136 177.648V200.439C292.136 213.844 291.97 223.667 291.732 224.291C290.853 226.601 287.393 226.815 285.924 224.651C285.195 223.577 285.131 222.117 285.002 203.583C284.841 180.619 284.987 177.852 286.435 176.404C287.81 175.031 289.756 175.082 291.096 176.527ZM323.065 175.821C324.672 176.681 324.777 178.235 324.771 200.998C324.764 224.699 324.776 224.566 322.575 225.801C320.985 226.693 319.262 226.017 318.308 224.128C317.617 222.763 317.569 220.927 317.672 200.121L317.783 177.592L318.81 176.499C319.892 175.349 321.656 175.068 323.065 175.821Z" fill="white"/>
<path d="M16.8615 287.228H3.36498V262.36H16.4514C21.1863 262.36 23.6097 265.38 23.6097 268.698C23.6097 271.83 21.671 273.917 19.3222 274.402C21.9693 274.812 24.0944 277.385 24.0944 280.517C24.0944 284.245 21.5964 287.228 16.8615 287.228ZM15.2956 272.314C17.0852 272.314 18.2037 271.196 18.2037 269.63C18.2037 268.064 17.0852 266.908 15.2956 266.908H8.65919V272.314H15.2956ZM15.482 282.642C17.4953 282.642 18.6884 281.56 18.6884 279.771C18.6884 278.205 17.5699 276.863 15.482 276.863H8.65919V282.642H15.482ZM43.5221 287.228H38.7872V285.363C37.5568 286.817 35.4317 287.675 33.0829 287.675C30.2121 287.675 26.8193 285.736 26.8193 281.71C26.8193 277.497 30.2121 275.893 33.0829 275.893C35.469 275.893 37.5941 276.676 38.7872 278.093V275.67C38.7872 273.843 37.2213 272.65 34.8352 272.65C32.8964 272.65 31.1069 273.358 29.5782 274.775L27.7887 271.606C29.9884 269.667 32.8219 268.772 35.6554 268.772C39.7565 268.772 43.5221 270.413 43.5221 275.595V287.228ZM34.9843 284.469C36.5129 284.469 38.0042 283.947 38.7872 282.903V280.666C38.0042 279.622 36.5129 279.1 34.9843 279.1C33.1201 279.1 31.5915 280.069 31.5915 281.821C31.5915 283.499 33.1201 284.469 34.9843 284.469ZM62.1253 287.228H47.4357V283.686L55.5634 273.358H47.4357V269.22H61.9761V272.65L53.7366 283.089H62.1253V287.228ZM82.9858 287.228H78.2508V276.266C78.2508 273.768 76.9459 272.985 74.8953 272.985C73.0685 272.985 71.6144 274.029 70.7942 275.111V287.228H66.0592V262.36H70.7942V271.569C71.95 270.189 74.187 268.772 77.1323 268.772C81.0843 268.772 82.9858 270.935 82.9858 274.439V287.228ZM96.1496 287.675C90.669 287.675 86.5306 283.984 86.5306 278.205C86.5306 272.985 90.3707 268.772 95.8514 268.772C101.22 268.772 104.874 272.799 104.874 278.69V279.734H91.4892C91.7875 282.008 93.6144 283.909 96.6716 283.909C98.2002 283.909 100.325 283.238 101.481 282.12L103.569 285.177C101.779 286.817 98.9459 287.675 96.1496 287.675ZM100.288 276.527C100.176 274.812 98.9832 272.538 95.8514 272.538C92.906 272.538 91.6384 274.738 91.4147 276.527H100.288ZM125.183 287.228H120.448V276.341C120.448 273.843 119.143 272.985 117.13 272.985C115.266 272.985 113.812 274.029 113.029 275.111V287.228H108.294V269.22H113.029V271.569C114.185 270.189 116.384 268.772 119.33 268.772C123.282 268.772 125.183 271.009 125.183 274.514V287.228ZM138.236 287.675C132.308 287.675 128.729 283.35 128.729 278.205C128.729 273.097 132.308 268.772 138.236 268.772C144.202 268.772 147.781 273.097 147.781 278.205C147.781 283.35 144.202 287.675 138.236 287.675ZM138.236 283.462C141.182 283.462 142.859 281.039 142.859 278.205C142.859 275.409 141.182 272.985 138.236 272.985C135.291 272.985 133.65 275.409 133.65 278.205C133.65 281.039 135.291 283.462 138.236 283.462ZM161.062 287.228H155.954L148.721 269.22H153.791L158.489 281.747L163.187 269.22H168.295L161.062 287.228ZM185.955 287.228H181.22V285.363C179.99 286.817 177.865 287.675 175.516 287.675C172.645 287.675 169.253 285.736 169.253 281.71C169.253 277.497 172.645 275.893 175.516 275.893C177.902 275.893 180.027 276.676 181.22 278.093V275.67C181.22 273.843 179.655 272.65 177.268 272.65C175.33 272.65 173.54 273.358 172.012 274.775L170.222 271.606C172.422 269.667 175.255 268.772 178.089 268.772C182.19 268.772 185.955 270.413 185.955 275.595V287.228ZM177.418 284.469C178.946 284.469 180.438 283.947 181.22 282.903V280.666C180.438 279.622 178.946 279.1 177.418 279.1C175.553 279.1 174.025 280.069 174.025 281.821C174.025 283.499 175.553 284.469 177.418 284.469ZM205.597 287.228H200.303V262.36H205.597V287.228ZM215.157 287.228H210.422V269.22H215.157V271.68C216.425 270.077 218.662 268.772 220.899 268.772V273.395C220.563 273.321 220.116 273.284 219.594 273.284C218.028 273.284 215.94 274.178 215.157 275.334V287.228ZM226.206 267.281C224.677 267.281 223.373 266.013 223.373 264.448C223.373 262.882 224.677 261.651 226.206 261.651C227.772 261.651 229.04 262.882 229.04 264.448C229.04 266.013 227.772 267.281 226.206 267.281ZM228.592 287.228H223.857V269.22H228.592V287.228ZM250.177 287.228H245.442V276.341C245.442 273.843 244.137 272.985 242.123 272.985C240.259 272.985 238.805 274.029 238.022 275.111V287.228H233.287V269.22H238.022V271.569C239.178 270.189 241.378 268.772 244.323 268.772C248.275 268.772 250.177 271.009 250.177 274.514V287.228ZM270.425 287.228H265.69V285.363C264.46 286.817 262.335 287.675 259.986 287.675C257.115 287.675 253.722 285.736 253.722 281.71C253.722 277.497 257.115 275.893 259.986 275.893C262.372 275.893 264.497 276.676 265.69 278.093V275.67C265.69 273.843 264.124 272.65 261.738 272.65C259.799 272.65 258.01 273.358 256.481 274.775L254.692 271.606C256.891 269.667 259.725 268.772 262.558 268.772C266.659 268.772 270.425 270.413 270.425 275.595V287.228ZM261.887 284.469C263.416 284.469 264.907 283.947 265.69 282.903V280.666C264.907 279.622 263.416 279.1 261.887 279.1C260.023 279.1 258.494 280.069 258.494 281.821C258.494 283.499 260.023 284.469 261.887 284.469Z" fill="white"/>
<path fill-rule="evenodd" clip-rule="evenodd" d="M40.5999 94.3012C37.6491 95.2368 34.7995 98.2044 33.8024 101.381C33.1568 103.437 33.0618 104.877 33.2157 110.278C33.479 119.532 34.181 121.152 42.4351 131.565C45.0159 134.82 47.7319 138.695 48.4708 140.176C49.7333 142.706 49.8151 143.152 49.8341 147.619C49.8587 153.413 49.3221 154.648 46.7836 154.638C43.5903 154.625 43.2961 153.806 43.2961 144.927V137.696H37.7851H32.2742V145.514C32.2742 156.375 33.0398 159.413 36.5299 162.399C39.006 164.517 42.5326 165.394 47.6018 165.153C57.9013 164.663 62.023 158.755 61.4109 145.361C61.0319 137.068 59.9967 134.858 51.2382 123.643C44.7624 115.351 44.4135 114.655 44.2117 109.639C44.0125 104.681 44.5547 103.372 46.8031 103.382C47.5556 103.386 48.4132 103.542 48.7086 103.73C49.668 104.338 50.0787 106.868 50.0787 112.165V117.358H55.1658H60.2528V109.919C60.2528 101.569 59.8933 99.5001 58.0548 97.271C55.7745 94.5059 53.9915 93.8856 47.9592 93.7593C44.0994 93.6784 42.1006 93.8254 40.5999 94.3012ZM0.904297 129.222V164.39H6.20327H11.5022V149.136V133.883H15.1055H18.7088V149.136V164.39H24.2223H29.7358L29.6273 129.328L29.5187 94.2661L24.1138 94.1474L18.7088 94.0288V108.253V122.477L15.2115 122.354L11.7142 122.231L11.6027 108.142L11.4908 94.0542H6.19776H0.904297V129.222ZM64.3508 94.3368C64.1952 94.4919 64.068 110.317 64.068 129.505V164.39H76.5736H89.0792V159.093V153.797H82.0845H75.0899V143.628V133.459H80.3889H85.6878V128.163V122.866H80.3889H75.0899V113.757V104.647H81.8726H88.6553V99.3505V94.0542H76.6444C70.0381 94.0542 64.5059 94.1813 64.3508 94.3368ZM107.561 95.2194C107.431 95.86 106.945 99.5306 106.483 103.376C105.316 113.082 102.957 132.374 100.947 148.657C100.015 156.199 99.2532 162.825 99.2532 163.38C99.2532 164.385 99.2782 164.39 104.068 164.39H108.883L109.386 159.199C109.662 156.344 109.997 153.389 110.129 152.632L110.37 151.255H114.05H117.731L118.262 156.657C118.553 159.628 118.894 162.584 119.018 163.225L119.245 164.39H124.451C129.613 164.39 129.657 164.382 129.506 163.436C129.423 162.912 127.449 147.706 125.119 129.646C122.79 111.585 120.778 96.1888 120.647 95.4312L120.41 94.0542H114.105H107.799L107.561 95.2194ZM131.047 129.184V164.39H136.558H142.069V148.654V132.919L144.506 133.205C145.847 133.362 147.23 133.776 147.58 134.125C148.11 134.654 148.252 137.092 148.434 148.833C148.553 156.574 148.812 163.24 149.009 163.648C149.322 164.298 150.047 164.39 154.877 164.39C159.954 164.39 160.365 164.331 160.097 163.648C159.286 161.583 159.03 157.054 159.028 144.745C159.026 131.895 158.984 131.169 158.151 129.689C157.67 128.834 156.741 127.774 156.086 127.334L154.895 126.534L156.173 125.459C158.745 123.296 159.006 122.003 159.014 111.426C159.018 106.144 158.825 101.19 158.583 100.317C157.981 98.1506 156.24 96.2117 153.953 95.1605C152.203 94.3567 151.089 94.2644 141.539 94.1279L131.047 93.9784V129.184ZM161.145 99.3505V104.647H165.596H170.047V134.518V164.39H175.346H180.645V134.518V104.647H185.097H189.548V99.3505V94.0542H175.346H161.145V99.3505ZM207.986 94.5838C207.882 94.8753 207.215 99.8802 206.504 105.706C205.792 111.532 204.743 120.112 204.172 124.773C203.601 129.434 202.372 139.539 201.44 147.23C200.508 154.92 199.643 161.927 199.517 162.801L199.288 164.39H204.168C206.852 164.39 209.066 164.247 209.087 164.072C209.109 163.897 209.443 160.989 209.829 157.61L210.532 151.467L214.204 151.345L217.876 151.223L218.104 152.404C218.23 153.054 218.558 156.016 218.834 158.987L219.335 164.39H224.578C229.01 164.39 229.82 164.289 229.82 163.739C229.82 163.381 228.874 155.897 227.717 147.108C226.56 138.319 224.54 122.93 223.226 112.91C221.912 102.89 220.749 94.5482 220.641 94.3728C220.532 94.1974 217.683 94.0542 214.309 94.0542C209.783 94.0542 208.124 94.1932 207.986 94.5838ZM231.516 129.222V164.39H236.386H241.257L241.367 145.333L241.478 126.277L243.671 134.847C244.877 139.56 247.05 148.135 248.5 153.903L251.135 164.39H255.527H259.918V129.222V94.0542H255.043H250.168L250.131 112.168L250.094 130.281L248.703 124.773C247.938 121.744 245.933 113.593 244.247 106.66L241.18 94.0542H236.348H231.516V129.222ZM263.733 129.21V164.444L274.225 164.31L284.717 164.178L286.764 162.975C289.193 161.548 291.053 158.841 291.723 155.755C292.049 154.255 292.153 145.61 292.059 127.739L291.924 101.893L290.869 99.8272C289.662 97.4655 287.72 95.7045 285.442 94.9054C284.391 94.5368 280.528 94.291 273.801 94.1648L263.733 93.9762V129.21ZM147.541 104.851C148.109 105.419 148.216 106.763 148.216 113.386C148.216 121.136 148.202 121.258 147.215 122.057C146.535 122.607 145.55 122.866 144.141 122.866H142.069V113.274V103.681L144.467 103.928C145.801 104.066 147.166 104.476 147.541 104.851ZM278.926 104.263C279.929 104.612 280.367 105.107 280.708 106.276C281.01 107.311 281.117 115.168 281.031 129.952C280.904 151.612 280.884 152.098 280.032 152.948C279.484 153.495 278.347 153.914 276.959 154.078L274.755 154.339V129.069V103.799H276.176C276.957 103.799 278.194 104.008 278.926 104.263ZM115.129 127.739C115.725 133.332 116.316 138.528 116.442 139.285L116.672 140.662H113.973H111.275L111.576 138.014C111.742 136.558 112.317 131.184 112.852 126.072C113.388 120.961 113.876 116.956 113.936 117.174C113.997 117.392 114.533 122.146 115.129 127.739ZM216.651 139.497C216.678 140.644 216.638 140.662 214.087 140.662H211.495L211.741 138.861C211.876 137.871 212.386 133.152 212.875 128.375C213.364 123.597 213.879 119.212 214.02 118.629C214.241 117.716 216.576 136.229 216.651 139.497ZM70.8507 165.06C64.3164 166.216 61.232 169.348 60.2176 175.858C59.7127 179.1 59.9433 185.05 60.7064 188.458C61.4652 191.849 63.7378 195.675 68.9842 202.396C71.8584 206.078 74.7419 210.044 75.3917 211.209C76.5176 213.228 76.5736 213.592 76.5736 218.897C76.5736 223.778 76.474 224.576 75.766 225.358C74.5871 226.662 72.4213 226.553 71.3056 225.135C70.4933 224.102 70.4268 223.463 70.4268 216.66V209.303H64.8798H59.3333L59.4778 218.518C59.6122 227.063 59.6936 227.888 60.5966 229.853C62.3202 233.603 64.7158 235.446 69.0698 236.368C73.1437 237.231 78.1675 236.788 81.3329 235.287C86.6107 232.783 89.1233 225.907 88.4454 215.819C87.9473 208.406 86.9269 206.323 78.3295 195.173C75.8415 191.946 73.3361 188.506 72.763 187.528C70.7935 184.169 70.5425 176.452 72.359 175.124C73.362 174.391 74.7168 174.405 75.7508 175.159C76.4854 175.695 76.5961 176.454 76.7856 182.256L76.9975 188.753L82.1905 188.872L87.3835 188.991L87.3733 181.669C87.3674 177.642 87.1665 173.489 86.9265 172.44C86.1605 169.091 83.8179 166.59 80.5576 165.643C78.9191 165.166 72.4468 164.778 70.8507 165.06ZM115.752 165.213C110.632 166.154 107.176 169.705 106.035 175.197C105.732 176.656 105.621 185.931 105.702 202.984C105.834 230.722 105.695 229.084 108.234 232.882C109.827 235.265 113.004 236.844 116.206 236.844C119.366 236.844 122.553 234.985 124.723 231.875L126.269 229.661L127.068 232.723L127.868 235.785L130.941 235.909L134.014 236.034V214.618V193.202H126.596H119.177V198.71V204.218H121.509H123.84V213.568C123.84 223.035 123.685 224.13 122.182 225.284C121.139 226.085 118.86 225.934 117.929 225.004C117.476 224.55 116.989 223.55 116.848 222.779C116.708 222.009 116.649 211.399 116.719 199.202L116.846 177.026L117.847 176.216C119.291 175.048 121.053 175.174 122.114 176.523C122.895 177.515 122.993 178.22 122.993 182.878V188.117H128.339H133.687L133.504 180.808C133.362 175.146 133.158 173.123 132.595 171.827C130.587 167.204 127.55 165.354 121.471 165.047C119.394 164.943 116.82 165.017 115.752 165.213ZM189.327 165.205C185.15 165.871 182.297 168.021 180.573 171.805C179.14 174.949 178.931 183.638 180.169 188.533C181.305 193.021 182.483 195.008 188.718 202.947C195.186 211.182 195.984 212.8 196.225 218.176C196.448 223.133 195.834 225.398 194.105 226.005C192.56 226.548 190.777 225.901 190.093 224.549C189.729 223.831 189.558 221.245 189.554 216.4L189.548 209.303H184.037H178.526V216.64C178.526 224.978 178.97 228.124 180.56 231.059C182.417 234.487 185.703 236.249 191.083 236.704C199.723 237.434 205.286 233.814 207.139 226.255C207.733 223.833 207.841 222.03 207.677 217.219C207.376 208.35 206.714 206.875 198.048 195.744C191.216 186.968 190.607 185.71 190.607 180.348C190.607 176.479 190.679 176.122 191.608 175.37C192.874 174.344 193.85 174.343 195.118 175.368C196.077 176.143 196.124 176.441 196.255 182.584L196.392 188.99L201.554 188.872L206.716 188.753L206.691 180.914C206.668 173.718 206.587 172.897 205.703 170.893C204.553 168.287 203.532 167.257 200.978 166.128C198.776 165.154 192.678 164.671 189.327 165.205ZM220.918 165.078C216.214 165.989 213.518 168.004 211.629 172.016L210.532 174.347V200.871V227.396L212.019 230.319C214.544 235.284 218.537 237.122 226.018 236.765C232.208 236.469 235.494 234.299 237.569 229.136C238.393 227.088 238.488 225.909 238.635 215.976L238.796 205.066H233.495H228.195L228.053 214.636L227.912 224.207L226.723 225.229C224.547 227.099 222.091 226.135 221.558 223.203C221.418 222.433 221.36 211.764 221.428 199.496C221.548 178.251 221.592 177.147 222.361 176.298C223.23 175.337 225.11 175.124 226.438 175.835C227.71 176.515 228.119 178.963 228.122 185.893L228.124 192.354H233.465H238.805L238.642 183.139C238.491 174.572 238.41 173.765 237.482 171.683C236.291 169.008 233.543 166.445 231.072 165.705C229.185 165.14 222.673 164.738 220.918 165.078ZM284.471 165.213C278.85 166.246 275.423 170.131 274.36 176.68C273.783 180.236 273.772 220.742 274.348 224.768C275.118 230.162 278.281 234.638 282.247 235.946C285.142 236.901 291.234 237.043 294.059 236.222C298.775 234.852 301.11 232.432 302.659 227.31C303.504 224.516 303.92 183.28 303.16 177.575C302.336 171.387 300.19 168.002 295.886 166.104C293.631 165.109 287.601 164.639 284.471 165.213ZM317.087 165.218C311.6 166.22 308.343 169.654 306.99 175.861C306.628 177.522 306.527 184.805 306.625 202.1C306.75 224.142 306.823 226.204 307.543 228.123C309.993 234.642 314.608 237.254 322.781 236.744C328.54 236.385 331.888 234.429 334.049 230.159C335.673 226.949 335.799 224.815 335.799 200.551C335.799 180.595 335.698 176.623 335.138 174.46C334.014 170.125 331.777 167.391 328.285 166.085C325.702 165.119 320.031 164.68 317.087 165.218ZM0.904297 200.835V236.064L10.9723 235.924C20.5224 235.792 21.1438 235.734 23.0544 234.793C25.4203 233.629 27.2927 231.509 28.3343 228.817C29.0096 227.071 29.0948 224.548 29.2262 202.312C29.3297 184.823 29.2284 176.908 28.8744 174.863C28.2182 171.072 26.4377 168.402 23.597 166.95C21.5381 165.897 21.2596 165.87 11.1974 165.74L0.904297 165.606V200.835ZM32.6981 200.829V235.996H45.2037H57.7093V230.488V224.98H50.7146H43.72V215.023V205.066H49.019H54.3179V199.557V194.049H49.019H43.72V185.151V176.254H50.5027H57.2853V170.957V165.661H44.9917H32.6981V200.829ZM91.1988 200.829V235.996H96.7097H102.221V200.829V165.661H96.7097H91.1988V200.829ZM137.509 200.723L137.618 235.785L142.599 235.904L147.58 236.023L147.618 216.837L147.657 197.651L151.828 214.175C154.122 223.264 156.319 231.892 156.711 233.348L157.424 235.996H161.828H166.232V200.829V165.661H161.357H156.482L156.438 183.774C156.4 199.444 156.319 201.631 155.839 199.981C155.533 198.933 153.511 190.781 151.346 181.868L147.409 165.661H142.405H137.401L137.509 200.723ZM241.69 200.829V235.996H247.2H252.711V220.531V205.066H256.315H259.918V220.531V235.996H265.217H270.516V200.829V165.661H265.217H259.918V179.643V193.626H256.315H252.711V179.643V165.661H247.2H241.69V200.829ZM339.191 200.835V236.01L351.166 235.897L363.142 235.785L363.261 230.382L363.379 224.98H356.796H350.212V195.32V165.661H344.702H339.191V200.835ZM17.1819 176.814C18.0611 177.995 18.073 178.311 18.073 200.405C18.073 222.499 18.0611 222.815 17.1819 223.996C16.4154 225.024 15.9559 225.21 13.8965 225.319L11.5022 225.446V200.405V175.364L13.8965 175.491C15.9559 175.6 16.4154 175.785 17.1819 176.814ZM291.096 176.527L292.136 177.648V200.439C292.136 213.844 291.97 223.667 291.732 224.291C290.853 226.601 287.393 226.815 285.924 224.651C285.195 223.577 285.131 222.117 285.002 203.583C284.841 180.619 284.987 177.852 286.435 176.404C287.81 175.031 289.756 175.082 291.096 176.527ZM323.065 175.821C324.672 176.681 324.777 178.235 324.771 200.998C324.764 224.699 324.776 224.566 322.575 225.801C320.985 226.693 319.262 226.017 318.308 224.128C317.617 222.763 317.569 220.927 317.672 200.121L317.783 177.592L318.81 176.499C319.892 175.349 321.656 175.068 323.065 175.821Z" fill="white"/>
</svg>
