<svg width="2306" height="1725" viewBox="0 0 2306 1725" fill="none" xmlns="http://www.w3.org/2000/svg">
<path d="M2304.34 340.056C2304.34 386.516 2272.42 430.984 2214.19 471.601C2155.98 512.199 2071.69 548.799 1967.45 579.553C1758.97 641.057 1470.9 679.113 1152.67 679.113C834.438 679.113 546.37 641.057 337.892 579.553C233.647 548.799 149.359 512.199 91.1547 471.601C32.9214 430.984 1 386.516 1 340.056C1 293.597 32.9214 249.129 91.1547 208.511C149.359 167.914 233.647 131.313 337.892 100.559C546.37 39.0552 834.438 1 1152.67 1C1470.9 1 1758.97 39.0552 1967.45 100.559C2071.69 131.313 2155.98 167.914 2214.19 208.511C2272.42 249.129 2304.34 293.597 2304.34 340.056Z" stroke="white" stroke-width="2"/>
<path d="M2304.34 456.048C2304.34 502.508 2272.42 546.976 2214.19 587.593C2155.98 628.19 2071.69 664.791 1967.45 695.545C1758.97 757.049 1470.9 795.104 1152.67 795.104C834.438 795.104 546.37 757.049 337.892 695.545C233.647 664.791 149.359 628.19 91.1547 587.593C32.9214 546.976 1 502.508 1 456.048C1 409.589 32.9214 365.12 91.1547 324.503C149.359 283.906 233.647 247.305 337.892 216.551C546.37 155.047 834.438 116.992 1152.67 116.992C1470.9 116.992 1758.97 155.047 1967.45 216.551C2071.69 247.305 2155.98 283.906 2214.19 324.503C2272.42 365.12 2304.34 409.589 2304.34 456.048Z" stroke="white" stroke-width="2"/>
<path d="M2304.34 572.04C2304.34 618.5 2272.42 662.968 2214.19 703.585C2155.98 744.183 2071.69 780.783 1967.45 811.537C1758.97 873.041 1470.9 911.097 1152.67 911.097C834.438 911.097 546.37 873.041 337.892 811.537C233.647 780.783 149.359 744.183 91.1547 703.585C32.9214 662.968 1 618.5 1 572.04C1 525.581 32.9214 481.113 91.1547 440.495C149.359 399.898 233.647 363.297 337.892 332.543C546.37 271.039 834.438 232.984 1152.67 232.984C1470.9 232.984 1758.97 271.039 1967.45 332.543C2071.69 363.297 2155.98 399.898 2214.19 440.495C2272.42 481.113 2304.34 525.581 2304.34 572.04Z" stroke="white" stroke-width="2"/>
<path d="M2304.34 688.032C2304.34 734.491 2272.42 778.96 2214.19 819.577C2155.98 860.174 2071.69 896.775 1967.45 927.529C1758.97 989.033 1470.9 1027.09 1152.67 1027.09C834.438 1027.09 546.37 989.033 337.892 927.529C233.647 896.775 149.359 860.174 91.1547 819.577C32.9214 778.96 1 734.491 1 688.032C1 641.573 32.9214 597.104 91.1547 556.487C149.359 515.89 233.647 479.289 337.892 448.535C546.37 387.031 834.438 348.976 1152.67 348.976C1470.9 348.976 1758.97 387.031 1967.45 448.535C2071.69 479.289 2155.98 515.89 2214.19 556.487C2272.42 597.104 2304.34 641.573 2304.34 688.032Z" stroke="white" stroke-width="2"/>
<path d="M2304.34 804.024C2304.34 850.484 2272.42 894.952 2214.19 935.569C2155.98 976.167 2071.69 1012.77 1967.45 1043.52C1758.97 1105.03 1470.9 1143.08 1152.67 1143.08C834.438 1143.08 546.37 1105.03 337.892 1043.52C233.647 1012.77 149.359 976.167 91.1547 935.569C32.9214 894.952 1 850.484 1 804.024C1 757.565 32.9214 713.097 91.1547 672.479C149.359 631.882 233.647 595.281 337.892 564.527C546.37 503.023 834.438 464.968 1152.67 464.968C1470.9 464.968 1758.97 503.023 1967.45 564.527C2071.69 595.281 2155.98 631.882 2214.19 672.479C2272.42 713.097 2304.34 757.565 2304.34 804.024Z" stroke="white" stroke-width="2"/>
<path d="M2304.34 920.016C2304.34 966.476 2272.42 1010.94 2214.19 1051.56C2155.98 1092.16 2071.69 1128.76 1967.45 1159.51C1758.97 1221.02 1470.9 1259.07 1152.67 1259.07C834.438 1259.07 546.37 1221.02 337.892 1159.51C233.647 1128.76 149.359 1092.16 91.1547 1051.56C32.9214 1010.94 1 966.476 1 920.016C1 873.557 32.9214 829.089 91.1547 788.471C149.359 747.874 233.647 711.273 337.892 680.519C546.37 619.015 834.438 580.96 1152.67 580.96C1470.9 580.96 1758.97 619.015 1967.45 680.519C2071.69 711.273 2155.98 747.874 2214.19 788.471C2272.42 829.089 2304.34 873.557 2304.34 920.016Z" stroke="white" stroke-width="2"/>
<path d="M2304.34 1036.01C2304.34 1082.47 2272.42 1126.94 2214.19 1167.55C2155.98 1208.15 2071.69 1244.75 1967.45 1275.51C1758.97 1337.01 1470.9 1375.06 1152.67 1375.06C834.438 1375.06 546.37 1337.01 337.892 1275.51C233.647 1244.75 149.359 1208.15 91.1547 1167.55C32.9214 1126.94 1 1082.47 1 1036.01C1 989.549 32.9214 945.08 91.1547 904.463C149.359 863.866 233.647 827.265 337.892 796.511C546.37 735.007 834.438 696.952 1152.67 696.952C1470.9 696.952 1758.97 735.007 1967.45 796.511C2071.69 827.265 2155.98 863.866 2214.19 904.463C2272.42 945.08 2304.34 989.549 2304.34 1036.01Z" stroke="white" stroke-width="2"/>
<path d="M2304.34 1152C2304.34 1198.46 2272.42 1242.93 2214.19 1283.55C2155.98 1324.14 2071.69 1360.74 1967.45 1391.5C1758.97 1453 1470.9 1491.06 1152.67 1491.06C834.438 1491.06 546.37 1453 337.892 1391.5C233.647 1360.74 149.359 1324.14 91.1547 1283.55C32.9214 1242.93 1 1198.46 1 1152C1 1105.54 32.9214 1061.07 91.1547 1020.46C149.359 979.858 233.647 943.257 337.892 912.503C546.37 850.999 834.438 812.944 1152.67 812.944C1470.9 812.944 1758.97 850.999 1967.45 912.503C2071.69 943.257 2155.98 979.858 2214.19 1020.46C2272.42 1061.07 2304.34 1105.54 2304.34 1152Z" stroke="white" stroke-width="2"/>
<path d="M2304.34 1267.99C2304.34 1314.45 2272.42 1358.92 2214.19 1399.54C2155.98 1440.13 2071.69 1476.73 1967.45 1507.49C1758.97 1568.99 1470.9 1607.05 1152.67 1607.05C834.438 1607.05 546.37 1568.99 337.892 1507.49C233.647 1476.73 149.359 1440.13 91.1547 1399.54C32.9214 1358.92 1 1314.45 1 1267.99C1 1221.53 32.9214 1177.06 91.1547 1136.45C149.359 1095.85 233.647 1059.25 337.892 1028.49C546.37 966.991 834.438 928.936 1152.67 928.936C1470.9 928.936 1758.97 966.991 1967.45 1028.49C2071.69 1059.25 2155.98 1095.85 2214.19 1136.45C2272.42 1177.06 2304.34 1221.53 2304.34 1267.99Z" stroke="white" stroke-width="2"/>
<path d="M2304.34 1383.98C2304.34 1430.44 2272.42 1474.91 2214.19 1515.53C2155.98 1556.13 2071.69 1592.73 1967.45 1623.48C1758.97 1684.99 1470.9 1723.04 1152.67 1723.04C834.438 1723.04 546.37 1684.99 337.892 1623.48C233.647 1592.73 149.359 1556.13 91.1547 1515.53C32.9214 1474.91 1 1430.44 1 1383.98C1 1337.52 32.9214 1293.06 91.1547 1252.44C149.359 1211.84 233.647 1175.24 337.892 1144.49C546.37 1082.98 834.438 1044.93 1152.67 1044.93C1470.9 1044.93 1758.97 1082.98 1967.45 1144.49C2071.69 1175.24 2155.98 1211.84 2214.19 1252.44C2272.42 1293.06 2304.34 1337.52 2304.34 1383.98Z" stroke="white" stroke-width="2"/>
</svg>
