<svg width="48" height="48" viewBox="0 0 48 48" fill="none" xmlns="http://www.w3.org/2000/svg">
<mask id="path-1-inside-1_336_2384" fill="white">
<path d="M11.6486 1.19C11.3659 0.400864 12.447 -0.137804 12.9067 0.563163L16.7625 6.44397C21.7415 14.0377 31.2752 17.2305 39.8231 14.1668L46.4429 11.7943C47.2322 11.5115 47.7708 12.5926 47.0698 13.0523L41.189 16.9082C33.5953 21.8871 30.4026 31.4208 33.4662 39.9687L35.8388 46.5885C36.1216 47.3778 35.0404 47.9164 34.5807 47.2154L30.7248 41.3346C25.746 33.7409 16.2122 30.5482 7.66424 33.6118L1.04441 35.9844C0.255268 36.2671 -0.2834 35.186 0.417567 34.7263L6.29837 30.8705C13.8921 25.8916 17.0849 16.3578 14.0212 7.80984L11.6486 1.19Z"/>
</mask>
<path d="M11.6486 1.19L10.0491 1.76308L10.0492 1.76325L11.6486 1.19ZM12.9067 0.563163L14.3276 -0.36845L14.3275 -0.368596L12.9067 0.563163ZM16.7625 6.44397L15.3417 7.37558L16.7625 6.44397ZM39.8231 14.1668L40.3964 15.7663L39.8231 14.1668ZM46.4429 11.7943L45.8698 10.1948L45.8697 10.1948L46.4429 11.7943ZM47.0698 13.0523L48.0014 14.4732L48.0015 14.4731L47.0698 13.0523ZM41.189 16.9082L40.2574 15.4873L40.2574 15.4873L41.189 16.9082ZM33.4662 39.9687L31.8668 40.542L31.8668 40.542L33.4662 39.9687ZM35.8388 46.5885L37.4382 46.0154L37.4382 46.0153L35.8388 46.5885ZM34.5807 47.2154L33.1598 48.147L33.1599 48.1471L34.5807 47.2154ZM30.7248 41.3346L32.1457 40.403L30.7248 41.3346ZM7.66424 33.6118L7.091 32.0124L7.66424 33.6118ZM1.04441 35.9844L1.61749 37.5839L1.61765 37.5838L1.04441 35.9844ZM0.417567 34.7263L-0.514045 33.3054L-0.514192 33.3055L0.417567 34.7263ZM6.29837 30.8705L5.36676 29.4496L6.29837 30.8705ZM14.0212 7.80984L12.4218 8.38308L14.0212 7.80984ZM13.2481 0.616924C13.3235 0.827437 13.3261 1.10524 13.2066 1.3667C13.0987 1.603 12.9247 1.75496 12.757 1.83853C12.5892 1.92211 12.3631 1.96948 12.1095 1.91336C11.8288 1.85127 11.6086 1.68191 11.4859 1.49492L14.3275 -0.368596C12.7642 -2.75227 9.08767 -0.920422 10.0491 1.76308L13.2481 0.616924ZM11.4858 1.49478L15.3417 7.37558L18.1834 5.51236L14.3276 -0.36845L11.4858 1.49478ZM15.3417 7.37558C20.7511 15.6259 31.1093 19.0948 40.3964 15.7663L39.2499 12.5674C31.4411 15.3661 22.7318 12.4494 18.1834 5.51236L15.3417 7.37558ZM40.3964 15.7663L47.0162 13.3937L45.8697 10.1948L39.2499 12.5674L40.3964 15.7663ZM47.016 13.3937C46.8056 13.4691 46.5279 13.4717 46.2664 13.3523C46.0301 13.2443 45.8781 13.0703 45.7945 12.9026C45.7109 12.7348 45.6635 12.5087 45.7197 12.255C45.7818 11.9743 45.9511 11.7541 46.138 11.6316L48.0015 14.4731C50.3853 12.9099 48.5535 9.23323 45.8698 10.1948L47.016 13.3937ZM46.1382 11.6315L40.2574 15.4873L42.1206 18.329L48.0014 14.4732L46.1382 11.6315ZM40.2574 15.4873C32.0071 20.8967 28.5382 31.2549 31.8668 40.542L35.0656 39.3955C32.2669 31.5867 35.1836 22.8774 42.1206 18.329L40.2574 15.4873ZM31.8668 40.542L34.2393 47.1618L37.4382 46.0153L35.0656 39.3955L31.8668 40.542ZM34.2393 47.1616C34.1639 46.9512 34.1613 46.6734 34.2807 46.412C34.3887 46.1757 34.5627 46.0237 34.7305 45.9401C34.8982 45.8565 35.1244 45.8091 35.378 45.8653C35.6587 45.9274 35.8789 46.0967 36.0015 46.2836L33.1599 48.1471C34.7232 50.5309 38.3998 48.699 37.4382 46.0154L34.2393 47.1616ZM36.0015 46.2838L32.1457 40.403L29.304 42.2662L33.1598 48.147L36.0015 46.2838ZM32.1457 40.403C26.7363 32.1527 16.3781 28.6838 7.091 32.0124L8.23748 35.2112C16.0463 32.4125 24.7556 35.3292 29.304 42.2662L32.1457 40.403ZM7.091 32.0124L0.471164 34.385L1.61765 37.5838L8.23748 35.2112L7.091 32.0124ZM0.471328 34.3849C0.681841 34.3095 0.959648 34.3069 1.2211 34.4264C1.45741 34.5344 1.60936 34.7083 1.69294 34.8761C1.77651 35.0438 1.82388 35.2699 1.76777 35.5236C1.70568 35.8042 1.53632 36.0245 1.34933 36.1471L-0.514192 33.3055C-2.89786 34.8688 -1.06602 38.5454 1.61749 37.5839L0.471328 34.3849ZM1.34918 36.1472L7.22999 32.2913L5.36676 29.4496L-0.514045 33.3054L1.34918 36.1472ZM7.22999 32.2913C15.4803 26.8819 18.9492 16.5237 15.6206 7.23659L12.4218 8.38308C15.2205 16.1919 12.3038 24.9012 5.36676 29.4496L7.22999 32.2913ZM15.6206 7.23659L13.248 0.616759L10.0492 1.76325L12.4218 8.38308L15.6206 7.23659Z" fill="white" mask="url(#path-1-inside-1_336_2384)"/>
</svg>
