<svg width="54" height="54" viewBox="0 0 54 54" fill="none" xmlns="http://www.w3.org/2000/svg">
<mask id="path-1-inside-1_336_2385" fill="white">
<path d="M26.0407 1.17826C26.1396 0.345852 27.3475 0.345852 27.4463 1.17826L28.2749 8.16144C29.3448 17.1786 36.4542 24.288 45.4713 25.3579L52.4544 26.1865C53.287 26.2853 53.287 27.4932 52.4544 27.5921L45.4713 28.4206C36.4542 29.4906 29.3448 36.5999 28.2749 45.617L27.4463 52.6002C27.3475 53.4327 26.1396 53.4327 26.0407 52.6002L25.2121 45.617C24.1422 36.5999 17.0329 29.4906 8.01569 28.4206L1.03251 27.5921C0.2001 27.4932 0.2001 26.2853 1.03251 26.1865L8.01569 25.3579C17.0329 24.288 24.1422 17.1786 25.2121 8.16144L26.0407 1.17826Z"/>
</mask>
<path d="M26.0407 1.17826L24.3535 0.977896L24.3535 0.978069L26.0407 1.17826ZM27.4463 1.17826L29.1335 0.978069L29.1335 0.977896L27.4463 1.17826ZM28.2749 8.16144L29.9621 7.96125L29.9621 7.96125L28.2749 8.16144ZM45.4713 25.3579L45.2711 27.0451L45.2711 27.0451L45.4713 25.3579ZM52.4544 26.1865L52.6548 24.4993L52.6546 24.4993L52.4544 26.1865ZM52.4544 27.5921L52.6546 29.2793L52.6548 29.2793L52.4544 27.5921ZM45.4713 28.4206L45.2711 26.7334L45.2711 26.7334L45.4713 28.4206ZM28.2749 45.617L26.5877 45.4168L26.5877 45.4168L28.2749 45.617ZM27.4463 52.6002L29.1335 52.8005L29.1335 52.8004L27.4463 52.6002ZM26.0407 52.6002L24.3535 52.8004L24.3535 52.8005L26.0407 52.6002ZM25.2121 45.617L26.8994 45.4168L26.8994 45.4168L25.2121 45.617ZM8.01569 28.4206L7.8155 30.1079L7.8155 30.1079L8.01569 28.4206ZM1.03251 27.5921L0.832144 29.2793L0.832317 29.2793L1.03251 27.5921ZM1.03251 26.1865L0.832317 24.4993L0.832144 24.4993L1.03251 26.1865ZM8.01569 25.3579L7.8155 23.6707L7.8155 23.6707L8.01569 25.3579ZM25.2121 8.16144L23.5249 7.96125L23.5249 7.96125L25.2121 8.16144ZM27.7279 1.37863C27.7015 1.60069 27.58 1.85049 27.3564 2.03123C27.1544 2.19458 26.9309 2.25301 26.7435 2.25301C26.5561 2.25301 26.3326 2.19458 26.1306 2.03123C25.9071 1.85049 25.7855 1.60069 25.7591 1.37863L29.1335 0.977896C28.7973 -1.85276 24.6897 -1.85276 24.3535 0.977896L27.7279 1.37863ZM25.7591 1.37846L26.5877 8.36164L29.9621 7.96125L29.1335 0.978069L25.7591 1.37846ZM26.5877 8.36164C27.7501 18.1585 35.4742 25.8827 45.2711 27.0451L45.6715 23.6707C37.4341 22.6933 30.9395 16.1987 29.9621 7.96125L26.5877 8.36164ZM45.2711 27.0451L52.2542 27.8737L52.6546 24.4993L45.6715 23.6707L45.2711 27.0451ZM52.2541 27.8737C52.0321 27.8473 51.7823 27.7258 51.6016 27.5023C51.4382 27.3002 51.3798 27.0767 51.3798 26.8893C51.3798 26.7018 51.4382 26.4783 51.6016 26.2763C51.7823 26.0528 52.0321 25.9312 52.2541 25.9049L52.6548 29.2793C55.4856 28.9431 55.4856 24.8354 52.6548 24.4993L52.2541 27.8737ZM52.2542 25.9049L45.2711 26.7334L45.6715 30.1079L52.6546 29.2793L52.2542 25.9049ZM45.2711 26.7334C35.4742 27.8959 27.7501 35.62 26.5877 45.4168L29.9621 45.8172C30.9395 37.5798 37.4341 31.0853 45.6715 30.1079L45.2711 26.7334ZM26.5877 45.4168L25.7591 52.4L29.1335 52.8004L29.9621 45.8172L26.5877 45.4168ZM25.7591 52.3998C25.7855 52.1779 25.907 51.9281 26.1305 51.7473C26.3326 51.584 26.5561 51.5255 26.7435 51.5255C26.931 51.5255 27.1545 51.584 27.3565 51.7473C27.58 51.9281 27.7016 52.1779 27.7279 52.3998L24.3535 52.8005C24.6897 55.6313 28.7974 55.6313 29.1335 52.8005L25.7591 52.3998ZM27.7279 52.4L26.8994 45.4168L23.5249 45.8172L24.3535 52.8004L27.7279 52.4ZM26.8994 45.4168C25.7369 35.62 18.0128 27.8959 8.21589 26.7334L7.8155 30.1079C16.0529 31.0853 22.5475 37.5799 23.5249 45.8172L26.8994 45.4168ZM8.21589 26.7334L1.23271 25.9049L0.832317 29.2793L7.8155 30.1079L8.21589 26.7334ZM1.23288 25.9049C1.45494 25.9312 1.70474 26.0528 1.88547 26.2764C2.04883 26.4784 2.10725 26.7019 2.10725 26.8893C2.10725 27.0767 2.04883 27.3001 1.88547 27.5022C1.70474 27.7257 1.45494 27.8473 1.23288 27.8737L0.832144 24.4993C-1.99851 24.8354 -1.99851 28.9431 0.832144 29.2793L1.23288 25.9049ZM1.23271 27.8737L8.21589 27.0451L7.8155 23.6707L0.832317 24.4993L1.23271 27.8737ZM8.21589 27.0451C18.0128 25.8827 25.7369 18.1585 26.8994 8.36164L23.5249 7.96125C22.5475 16.1987 16.0529 22.6933 7.8155 23.6707L8.21589 27.0451ZM26.8994 8.36164L27.7279 1.37846L24.3535 0.978069L23.5249 7.96125L26.8994 8.36164Z" fill="white" mask="url(#path-1-inside-1_336_2385)"/>
</svg>
