<svg width="1537" height="1557" viewBox="0 0 1537 1557" fill="none" xmlns="http://www.w3.org/2000/svg">
<path fill-rule="evenodd" clip-rule="evenodd" d="M1494.88 1011.86C1417.69 1241.39 1233.23 1430.72 983.173 1503.81C914.658 1523.83 845.594 1533.85 777.544 1534.72L779.603 1522.6L757.457 1534.71C746.288 1534.56 735.15 1534.16 724.051 1533.52L725.888 1518.36L703.462 1532.05C663.676 1528.67 624.448 1522.18 586.103 1512.77C484.05 1401.3 414.607 1284.56 371.903 1167.44C389.64 1167.5 407.735 1167 426.131 1165.98C462.006 1163.98 499.035 1159.99 536.797 1154.19L536.361 1155.23C537.095 1155.54 537.829 1155.85 538.564 1156.15L539.048 1154.99C538.381 1154.71 537.713 1154.43 537.047 1154.15C662.489 1134.87 795.996 1095.65 922.083 1043.45C1086.21 975.512 1237.81 885.566 1342.71 788.934C1399.57 736.554 1442.76 682.159 1466.75 628.204C1467.4 629.394 1468.05 630.584 1468.69 631.776L1469.8 631.175L1469.44 630.511L1469.17 630.011L1468.84 629.394C1468.36 628.513 1467.87 627.633 1467.39 626.752C1487.06 581.859 1493.41 537.286 1483.23 494.447L1483.92 494.058C1491.28 513.328 1497.92 533.046 1503.81 553.189C1528.13 636.419 1537.69 720.461 1534.02 802.509L1533.91 801.992L1532.68 802.25C1533 803.807 1533.32 805.363 1533.63 806.918L1533.81 806.882C1530.29 876.539 1517.24 944.721 1495.6 1009.71C1495.23 1010 1494.85 1010.29 1494.48 1010.57L1493.74 1011.15C1493.42 1011.39 1493.11 1011.63 1492.79 1011.88L1493.56 1012.88L1493.96 1012.57C1494.27 1012.33 1494.57 1012.09 1494.88 1011.86ZM755.9 1536.38C745.184 1536.21 734.498 1535.81 723.848 1535.19L721.774 1552.31L703.331 1533.72C452.663 1512.33 224.126 1367.83 99.0349 1144.75C84.6816 1119.2 71.6865 1092.6 60.1723 1065.05C59.9477 1064.82 59.7235 1064.58 59.4998 1064.35L59.7715 1064.09C48.943 1038.07 39.4333 1011.2 31.3452 983.526C-9.60092 843.423 -8.7757 701.025 26.5184 569.665L10.0859 563.894L32.0957 549.959C103.93 308.487 293.032 107.275 552.836 31.3451C902.591 -70.8733 1266.65 87.2304 1437.57 392.046C1465.63 442.009 1488.5 495.918 1505.26 553.273C1624.19 960.216 1390.71 1386.52 983.772 1505.45C914.96 1525.56 845.594 1535.6 777.254 1536.42L773.875 1556.31L755.9 1536.38ZM1481.89 494.274L1482.66 494.089C1481.97 492.873 1481.26 491.67 1480.52 490.48L1481.59 489.817C1482.27 490.909 1482.93 492.013 1483.57 493.128C1470.15 458.116 1454.37 424.584 1436.47 392.664C1318.89 183.297 1110 43.3494 877.346 9.80977L877.372 9.89669C661.189 73.0776 448.764 296.52 360.27 580.439C304.318 759.95 297.919 963.613 371.444 1166.18C389.299 1166.24 407.525 1165.75 426.061 1164.72C581.005 1156.11 757.567 1110.19 921.601 1042.29C1085.64 974.385 1237.1 884.51 1341.86 788.006C1398.99 735.372 1442.18 680.816 1465.98 626.814C1465.72 626.328 1465.45 625.841 1465.18 625.355C1464.81 624.694 1464.44 624.033 1464.07 623.373L1465.18 622.758C1465.39 623.138 1465.6 623.518 1465.81 623.898C1466.08 624.385 1466.35 624.872 1466.62 625.359C1485.97 580.808 1492.08 536.65 1481.89 494.274ZM359.066 580.064C348.872 612.768 340.321 646.273 333.596 680.426L333.192 679.779C330.493 681.466 327.807 683.158 325.135 684.855L325.811 685.919C328.35 684.307 330.901 682.699 333.465 681.095C303.402 834.349 310.106 1000.63 370.1 1166.17C239.866 1165.51 129.418 1134.96 61.3557 1064.46C50.4723 1038.36 40.9192 1011.39 32.8007 983.609C-5.06195 854.057 -7.14881 722.538 20.7473 599.631L20.7482 599.635L21.9817 599.374C21.7921 598.479 21.6051 597.585 21.4207 596.691C23.4724 587.814 25.6806 578.982 28.0431 570.2L42.3486 575.224L33.7322 550.143C50.799 492.947 74.4576 438.018 104.086 386.492L104.248 386.702C105.548 385.705 106.847 384.711 108.147 383.72L107.383 382.717C106.717 383.225 106.051 383.733 105.385 384.243C200.62 219.905 356.729 90.4809 553.435 32.9924C661.143 1.51401 770.209 -5.23622 874.556 9.41282C658.731 73.7082 447.319 296.916 359.066 580.064ZM370.559 1167.44C241.369 1166.84 131.329 1136.92 62.6809 1067.62C73.8357 1094.04 86.3565 1119.56 100.134 1144.13C204.862 1330.61 382.022 1462.02 583.897 1512.22C482.297 1400.91 413.125 1284.36 370.559 1167.44ZM1009.36 805.103C1055.95 763.867 1078.64 719.342 1067.49 681.185C1056.33 643.028 1013.24 617.726 951.777 608.071C890.417 598.433 811.219 604.491 728.756 628.591C646.292 652.691 576.297 690.237 529.784 731.401C483.19 772.637 460.508 817.162 471.66 855.319C482.811 893.476 525.901 918.779 587.368 928.433C648.728 938.071 727.926 932.013 810.389 907.913C892.852 883.813 962.848 846.267 1009.36 805.103ZM810.743 909.123C975.944 860.842 1091.43 758.632 1068.7 680.831C1045.96 603.03 893.603 579.1 728.402 627.381C563.201 675.662 447.711 777.872 470.449 855.673C493.187 933.474 645.542 957.405 810.743 909.123ZM25.6797 615.502C24.5429 610.891 23.4746 606.282 22.4755 601.676L21.2432 601.944C22.2448 606.561 23.3159 611.181 24.4555 615.804L25.6797 615.502ZM28.0445 624.728C27.8398 623.959 27.6371 623.19 27.4362 622.421L26.2162 622.74C26.4176 623.511 26.6208 624.281 26.8259 625.052L28.0445 624.728ZM33.965 645.306C33.2682 643.053 32.5872 640.8 31.9222 638.547L30.7129 638.903C31.3794 641.162 32.0619 643.42 32.7604 645.679L33.965 645.306ZM39.1015 661.078C37.5605 656.573 36.0821 652.066 34.6672 647.56L33.4642 647.937C34.8823 652.454 36.364 656.971 37.9085 661.486L39.1015 661.078ZM42.2671 670.087C41.9964 669.336 41.7274 668.585 41.4601 667.835L40.2722 668.258C40.5401 669.01 40.8097 669.762 41.081 670.514L42.2671 670.087ZM49.8818 690.055C49.0004 687.862 48.1335 685.668 47.2813 683.474L46.1059 683.93C46.9599 686.13 47.8286 688.328 48.7119 690.525L49.8818 690.055ZM56.2881 705.39C54.3905 701.013 52.5503 696.632 50.7681 692.248L49.6 692.722C51.3859 697.116 53.2298 701.506 55.1312 705.891L56.2881 705.39ZM60.1595 714.136C59.8305 713.408 59.5032 712.68 59.1774 711.951L58.0263 712.466C58.3527 713.196 58.6807 713.926 59.0103 714.655L60.1595 714.136ZM69.2628 733.437C68.2185 731.313 67.1875 729.188 66.1698 727.061L65.0324 727.605C66.052 729.736 67.085 731.866 68.1313 733.994L69.2628 733.437ZM76.7894 748.278C74.5775 744.046 72.4181 739.807 70.3117 735.561L69.1821 736.121C71.2925 740.375 73.456 744.622 75.6719 748.862L76.7894 748.278ZM81.2829 756.731C80.9027 756.027 80.5238 755.324 80.1465 754.62L79.0351 755.215C79.4132 755.921 79.7927 756.626 80.1736 757.331L81.2829 756.731ZM91.7044 775.335C90.5159 773.285 89.3396 771.234 88.1755 769.18L87.0786 769.802C88.2447 771.859 89.4231 773.914 90.6137 775.967L91.7044 775.335ZM100.222 789.64C97.7319 785.564 95.2902 781.478 92.8969 777.383L91.8083 778.019C94.2057 782.122 96.6517 786.215 99.1457 790.297L100.222 789.64ZM104.594 796.708C104.393 796.388 104.193 796.067 103.992 795.746L102.923 796.414C103.346 797.093 103.771 797.771 104.198 798.449L105.265 797.778C105.041 797.422 104.817 797.065 104.594 796.708ZM116.865 815.669C115.549 813.699 114.243 811.726 112.949 809.75L111.894 810.441C113.19 812.42 114.498 814.396 115.817 816.37L116.865 815.669ZM126.263 829.412C123.526 825.499 120.834 821.575 118.186 817.638L117.139 818.342C119.792 822.285 122.489 826.216 125.23 830.134L126.263 829.412ZM131.795 837.22C131.329 836.571 130.865 835.921 130.401 835.271L129.374 836.003L129.695 836.452L129.971 836.839L130.271 837.258L130.499 837.576L130.771 837.955L131.795 837.22ZM144.46 854.388C143.028 852.5 141.607 850.609 140.197 848.714L139.185 849.467C140.598 851.365 142.021 853.259 143.455 855.15L144.46 854.388ZM154.645 867.549C151.687 863.805 148.77 860.047 145.894 856.276L144.892 857.04C147.772 860.818 150.694 864.581 153.656 868.331L154.645 867.549ZM160.614 875.017C160.112 874.396 159.611 873.775 159.111 873.154L158.129 873.944C158.629 874.566 159.131 875.188 159.633 875.81L160.614 875.017ZM174.248 891.455C172.714 889.651 171.189 887.843 169.673 886.031L168.706 886.84C170.224 888.655 171.751 890.465 173.288 892.272L174.248 891.455ZM185.143 904.019C181.987 900.448 178.867 896.861 175.786 893.258L174.828 894.077C177.914 897.685 181.037 901.278 184.198 904.854L185.143 904.019ZM191.505 911.138C191.289 910.9 191.074 910.661 190.859 910.422C190.54 910.069 190.223 909.716 189.905 909.363L188.967 910.205C189.5 910.799 190.034 911.391 190.569 911.984L191.505 911.138ZM206.03 926.836C204.402 925.118 202.782 923.396 201.172 921.669L200.25 922.529C201.863 924.258 203.484 925.983 205.115 927.703L206.03 926.836ZM217.568 938.791C214.231 935.396 210.929 931.983 207.661 928.553L206.748 929.422C210.02 932.858 213.327 936.275 216.669 939.675L217.568 938.791ZM223.228 944.5C223.018 944.29 222.808 944.08 222.599 943.87L221.706 944.761C222.165 945.22 222.624 945.679 223.084 946.138L223.397 946.45L224.287 945.557L224.086 945.357C223.8 945.071 223.514 944.786 223.228 944.5ZM239.633 960.501C237.92 958.87 236.214 957.235 234.517 955.595L233.641 956.501C235.34 958.144 237.048 959.781 238.764 961.414L239.633 960.501ZM251.759 971.836C248.257 968.62 244.787 965.384 241.349 962.13L240.483 963.045C243.925 966.304 247.399 969.545 250.906 972.765L251.759 971.836ZM258.804 978.242C258.213 977.711 257.623 977.178 257.035 976.646L256.189 977.581C256.778 978.114 257.369 978.647 257.96 979.179L258.804 978.242ZM274.911 992.415C273.109 990.865 271.315 989.31 269.528 987.75L268.699 988.7C270.488 990.262 272.284 991.819 274.088 993.371L274.911 992.415ZM287.576 1003.12C283.923 1000.09 280.299 997.031 276.705 993.955L275.885 994.913C279.484 997.993 283.112 1001.05 286.77 1004.09L287.576 1003.12ZM294.92 1009.16C294.579 1008.88 294.239 1008.61 293.898 1008.33C293.624 1008.1 293.35 1007.88 293.077 1007.66L292.278 1008.63C292.512 1008.82 292.747 1009.01 292.981 1009.21C293.362 1009.52 293.743 1009.83 294.124 1010.14L294.92 1009.16ZM311.727 1022.54C309.838 1021.07 307.957 1019.59 306.082 1018.11L305.3 1019.1C307.177 1020.58 309.062 1022.06 310.953 1023.53L311.727 1022.54ZM324.896 1032.61C321.103 1029.76 317.338 1026.89 313.6 1023.99L312.828 1024.99C316.571 1027.89 320.341 1030.76 324.138 1033.61L324.896 1032.61ZM332.517 1038.27C331.879 1037.8 331.241 1037.33 330.605 1036.86L329.855 1037.88C330.492 1038.35 331.13 1038.82 331.769 1039.29L332.517 1038.27ZM349.925 1050.8C347.971 1049.42 346.023 1048.04 344.082 1046.66L343.349 1047.69C345.293 1049.07 347.243 1050.45 349.199 1051.83L349.925 1050.8ZM363.607 1060.25C359.673 1057.58 355.764 1054.89 351.881 1052.17L351.158 1053.2C355.046 1055.92 358.96 1058.62 362.9 1061.29L363.607 1060.25ZM371.484 1065.54C371.231 1065.37 370.979 1065.2 370.726 1065.03L370.163 1064.66L369.509 1064.22L368.809 1065.27C369.467 1065.71 370.126 1066.15 370.786 1066.59L371.484 1065.54ZM389.448 1077.19C387.433 1075.92 385.425 1074.63 383.423 1073.34L382.741 1074.4C384.745 1075.7 386.756 1076.98 388.773 1078.26L389.448 1077.19ZM403.609 1086C399.537 1083.51 395.489 1081 391.464 1078.47L390.792 1079.53C394.821 1082.07 398.875 1084.59 402.952 1087.08L403.609 1086ZM410.743 1090.31C410.391 1090.1 410.04 1089.89 409.688 1089.68L409.039 1090.76L409.396 1090.98L409.681 1091.15L409.955 1091.31L410.445 1091.6L411.075 1091.98L411.722 1090.9L411.13 1090.54L410.743 1090.31ZM430.199 1101.67C428.129 1100.49 426.065 1099.31 424.006 1098.12L423.375 1099.21C425.436 1100.4 427.503 1101.58 429.576 1102.76L430.199 1101.67ZM444.78 1109.79C440.588 1107.5 436.418 1105.19 432.271 1102.84L431.651 1103.94C435.803 1106.29 439.978 1108.61 444.175 1110.9L444.78 1109.79ZM453.135 1114.31C452.438 1113.93 451.742 1113.56 451.047 1113.19L450.45 1114.3C451.147 1114.67 451.843 1115.05 452.541 1115.42L453.135 1114.31ZM472.085 1124.16C469.963 1123.09 467.847 1122.01 465.737 1120.92L465.159 1122.04C467.272 1123.13 469.391 1124.21 471.515 1125.29L472.085 1124.16ZM487.017 1131.57C482.727 1129.49 478.457 1127.38 474.208 1125.24L473.64 1126.36C477.895 1128.5 482.17 1130.62 486.466 1132.7L487.017 1131.57ZM495.624 1135.7C494.904 1135.36 494.185 1135.02 493.467 1134.67L492.925 1135.81C493.644 1136.15 494.364 1136.5 495.084 1136.84L495.624 1135.7ZM515.012 1144.62C512.844 1143.65 510.681 1142.68 508.522 1141.69L507.999 1142.84C510.16 1143.82 512.326 1144.8 514.497 1145.77L515.012 1144.62ZM530.264 1151.29C525.884 1149.42 521.523 1147.52 517.181 1145.59L516.669 1146.74C521.017 1148.67 525.383 1150.58 529.769 1152.45L530.264 1151.29ZM558.888 1162.98C556.678 1162.12 554.473 1161.25 552.272 1160.37L551.805 1161.54C554.009 1162.42 556.217 1163.29 558.43 1164.15L558.888 1162.98ZM574.427 1168.88C569.967 1167.23 565.525 1165.55 561.099 1163.84L560.644 1165.01C565.075 1166.73 569.524 1168.41 573.99 1170.07L574.427 1168.88ZM583.37 1172.15C582.623 1171.88 581.876 1171.61 581.13 1171.34L580.701 1172.52C580.983 1172.63 581.264 1172.73 581.546 1172.83C582.012 1173 582.478 1173.16 582.944 1173.33L583.37 1172.15ZM603.62 1179.16C601.366 1178.41 599.115 1177.65 596.868 1176.88L596.46 1178.07C598.709 1178.84 600.963 1179.61 603.221 1180.36L603.62 1179.16ZM619.411 1184.29C614.881 1182.86 610.367 1181.4 605.868 1179.91L605.472 1181.11C609.976 1182.6 614.497 1184.06 619.033 1185.49L619.411 1184.29ZM628.492 1187.1C627.734 1186.87 626.976 1186.64 626.218 1186.4L625.849 1187.61C626.607 1187.84 627.366 1188.07 628.126 1188.3L628.492 1187.1ZM649.074 1193.1C646.776 1192.46 644.481 1191.81 642.191 1191.15L641.842 1192.36C644.136 1193.02 646.433 1193.67 648.734 1194.32L649.074 1193.1ZM665.118 1197.43C660.522 1196.24 655.94 1195.01 651.373 1193.74L651.037 1194.96C655.61 1196.22 660.198 1197.46 664.8 1198.65L665.118 1197.43ZM674.315 1199.78C673.547 1199.59 672.779 1199.4 672.012 1199.2L671.703 1200.43C672.471 1200.62 673.24 1200.81 674.009 1201.01L674.315 1199.78ZM695.143 1204.73C692.818 1204.21 690.497 1203.68 688.18 1203.13L687.893 1204.36C690.213 1204.9 692.538 1205.44 694.865 1205.96L695.143 1204.73ZM711.446 1208.26C706.774 1207.29 702.114 1206.29 697.469 1205.26L697.194 1206.49C701.846 1207.52 706.512 1208.53 711.19 1209.49L711.446 1208.26ZM720.734 1210.13C719.958 1209.98 719.183 1209.83 718.409 1209.67L718.162 1210.91C718.559 1210.99 718.955 1211.07 719.352 1211.15L719.972 1211.27L720.491 1211.37L720.734 1210.13ZM741.753 1214.01C739.409 1213.6 737.067 1213.19 734.728 1212.77L734.504 1214.01C736.846 1214.43 739.191 1214.84 741.539 1215.25L741.753 1214.01ZM758.215 1216.69C753.498 1215.97 748.792 1215.2 744.099 1214.41L743.888 1215.65C748.588 1216.45 753.3 1217.21 758.023 1217.94L758.215 1216.69ZM767.644 1218.09C766.862 1217.98 766.081 1217.87 765.299 1217.75L765.117 1219C765.9 1219.11 766.682 1219.23 767.465 1219.34L767.644 1218.09ZM788.793 1220.87C786.435 1220.58 784.079 1220.29 781.727 1219.99L781.567 1221.24C783.923 1221.54 786.282 1221.84 788.643 1222.12L788.793 1220.87ZM805.342 1222.69C800.602 1222.21 795.871 1221.69 791.152 1221.14L791.005 1222.4C795.732 1222.95 800.468 1223.46 805.216 1223.94L805.342 1222.69ZM814.837 1223.59C814.045 1223.52 813.253 1223.45 812.461 1223.38L812.344 1224.63L812.819 1224.68C813.154 1224.71 813.49 1224.74 813.826 1224.77C814.125 1224.8 814.425 1224.82 814.724 1224.85L814.837 1223.59ZM836.148 1225.26C833.784 1225.1 831.423 1224.94 829.064 1224.76L828.971 1226.02C831.333 1226.2 833.697 1226.36 836.065 1226.52L836.148 1225.26ZM852.732 1226.21C847.983 1225.98 843.243 1225.72 838.513 1225.42L838.432 1226.67C843.17 1226.98 847.916 1227.24 852.672 1227.47L852.732 1226.21ZM862.243 1226.61L861.725 1226.59C861.104 1226.57 860.483 1226.55 859.863 1226.52L859.813 1227.78C860.607 1227.81 861.401 1227.84 862.196 1227.87L862.243 1226.61ZM883.707 1227.16C881.32 1227.13 878.935 1227.08 876.552 1227.03L876.526 1228.29C878.911 1228.34 881.3 1228.39 883.69 1228.42L883.707 1227.16ZM900.268 1227.22C895.527 1227.25 890.793 1227.24 886.068 1227.19L886.055 1228.45C890.787 1228.5 895.527 1228.51 900.274 1228.49L900.268 1227.22ZM907.769 1227.15L907.385 1227.16L907.402 1228.42C908.194 1228.41 908.987 1228.4 909.78 1228.39L909.76 1227.12L908.875 1227.14L908.23 1227.15L907.769 1227.15ZM931.192 1226.53C928.805 1226.62 926.42 1226.71 924.037 1226.79L924.077 1228.05C926.464 1227.97 928.852 1227.88 931.242 1227.79L931.192 1226.53ZM947.834 1225.71C943.076 1225.99 938.324 1226.23 933.579 1226.43L933.633 1227.69C938.384 1227.49 943.143 1227.25 947.908 1226.97L947.834 1225.71ZM957.273 1225.11C956.486 1225.16 955.699 1225.22 954.912 1225.27L954.996 1226.53C955.602 1226.49 956.207 1226.44 956.813 1226.4L957.361 1226.37L957.273 1225.11ZM978.574 1223.38C976.203 1223.6 973.833 1223.81 971.465 1224.01L971.572 1225.27C973.943 1225.07 976.317 1224.85 978.691 1224.63L978.574 1223.38ZM995.198 1221.67C990.441 1222.2 985.691 1222.7 980.946 1223.15L981.066 1224.41C985.818 1223.95 990.575 1223.46 995.338 1222.92L995.198 1221.67ZM1004.67 1220.56C1003.89 1220.65 1003.11 1220.75 1002.33 1220.84L1002.49 1222.09C1003.05 1222.02 1003.62 1221.96 1004.18 1221.89L1004.83 1221.81L1004.67 1220.56ZM1025.76 1217.71C1023.41 1218.05 1021.07 1218.39 1018.72 1218.71L1018.9 1219.96L1019.33 1219.9L1019.66 1219.86L1020.09 1219.8L1020.93 1219.68C1021.37 1219.62 1021.82 1219.55 1022.26 1219.49C1023.49 1219.31 1024.72 1219.14 1025.94 1218.95L1025.76 1217.71ZM1042.21 1215.13C1037.5 1215.91 1032.8 1216.65 1028.11 1217.36L1028.29 1218.61C1033 1217.9 1037.7 1217.16 1042.41 1216.37L1042.21 1215.13ZM1051.62 1213.51C1050.84 1213.65 1050.05 1213.79 1049.27 1213.93L1049.48 1215.17C1050.27 1215.03 1051.06 1214.9 1051.84 1214.76L1051.62 1213.51ZM1068.38 1210.38L1067.41 1210.57C1066.84 1210.68 1066.28 1210.79 1065.71 1210.9L1065.95 1212.14C1068.27 1211.69 1070.58 1211.24 1072.9 1210.77L1072.65 1209.53C1071.22 1209.82 1069.8 1210.1 1068.38 1210.38ZM1088.86 1206.11C1084.22 1207.13 1079.59 1208.12 1074.96 1209.06L1075.22 1210.3C1079.85 1209.35 1084.49 1208.37 1089.13 1207.34L1088.86 1206.11ZM1098.13 1204.01C1097.36 1204.19 1096.58 1204.37 1095.81 1204.55L1096.09 1205.78L1097.05 1205.56C1097.5 1205.45 1097.96 1205.35 1098.41 1205.24L1098.13 1204.01ZM1119.03 1198.91C1116.7 1199.51 1114.38 1200.1 1112.06 1200.67L1112.36 1201.9C1114.69 1201.32 1117.01 1200.73 1119.34 1200.13L1119.03 1198.91ZM1135.06 1194.65C1130.49 1195.91 1125.92 1197.13 1121.35 1198.31L1121.67 1199.53C1126.24 1198.35 1130.81 1197.12 1135.39 1195.86L1135.06 1194.65ZM1143.23 1192.35C1142.78 1192.48 1142.33 1192.61 1141.88 1192.74L1142.22 1193.95C1142.98 1193.73 1143.74 1193.52 1144.5 1193.3L1144.15 1192.09L1143.61 1192.24L1143.23 1192.35ZM1164.64 1185.95C1162.36 1186.66 1160.08 1187.36 1157.81 1188.06L1158.17 1189.26C1158.62 1189.13 1159.06 1188.99 1159.51 1188.86C1159.99 1188.71 1160.48 1188.56 1160.97 1188.41C1162.32 1188 1163.67 1187.58 1165.01 1187.16L1164.64 1185.95ZM1180.59 1180.82C1176.03 1182.33 1171.47 1183.81 1166.92 1185.24L1167.3 1186.44C1171.86 1185.01 1176.42 1183.53 1180.99 1182.02L1180.59 1180.82ZM1188.65 1178.11C1188.23 1178.25 1187.82 1178.39 1187.41 1178.53L1187.81 1179.73L1188.52 1179.49L1189.13 1179.28L1189.55 1179.13L1190.04 1178.97L1189.63 1177.77L1189.17 1177.93L1188.65 1178.11ZM1209.63 1170.67C1207.4 1171.48 1205.18 1172.29 1202.96 1173.09L1203.39 1174.28C1205.61 1173.48 1207.84 1172.67 1210.06 1171.85L1209.63 1170.67ZM1225.2 1164.78C1220.75 1166.51 1216.3 1168.2 1211.85 1169.85L1212.29 1171.03C1216.74 1169.38 1221.2 1167.69 1225.65 1165.96L1225.2 1164.78ZM1234.09 1161.28C1233.35 1161.58 1232.61 1161.87 1231.87 1162.17L1232.33 1163.34C1233.08 1163.05 1233.82 1162.75 1234.56 1162.45L1234.09 1161.28ZM1253.95 1153.1C1251.79 1154.02 1249.62 1154.94 1247.45 1155.84L1247.93 1157C1250.1 1156.1 1252.28 1155.19 1254.45 1154.26L1253.95 1153.1ZM1269.08 1146.53C1264.76 1148.45 1260.44 1150.33 1256.12 1152.18L1256.61 1153.34C1260.94 1151.49 1265.27 1149.6 1269.59 1147.68L1269.08 1146.53ZM1276.23 1143.31L1275.56 1143.62L1276.08 1144.76C1276.43 1144.61 1276.78 1144.45 1277.13 1144.29C1277.5 1144.12 1277.88 1143.95 1278.25 1143.78L1277.73 1142.63C1277.23 1142.86 1276.73 1143.09 1276.23 1143.31ZM1297.18 1133.51C1295.01 1134.55 1292.85 1135.58 1290.69 1136.61L1291.23 1137.75C1293.4 1136.72 1295.56 1135.69 1297.72 1134.64L1297.18 1133.51ZM1312.24 1126.09C1307.94 1128.25 1303.64 1130.38 1299.34 1132.46L1299.89 1133.6C1304.19 1131.51 1308.5 1129.38 1312.81 1127.22L1312.24 1126.09ZM1320.6 1121.84C1319.91 1122.2 1319.21 1122.56 1318.51 1122.91L1319.09 1124.04C1319.78 1123.68 1320.48 1123.32 1321.18 1122.96L1320.6 1121.84ZM1339.41 1111.93C1337.32 1113.06 1335.23 1114.18 1333.14 1115.29L1333.74 1116.4C1334.15 1116.18 1334.57 1115.96 1334.98 1115.74C1335.6 1115.41 1336.21 1115.08 1336.83 1114.75C1337.26 1114.52 1337.69 1114.29 1338.12 1114.06L1338.41 1113.9C1338.95 1113.61 1339.48 1113.33 1340.01 1113.04L1339.41 1111.93ZM1354.04 1103.88C1349.86 1106.23 1345.68 1108.53 1341.5 1110.8L1342.1 1111.91C1346.29 1109.64 1350.47 1107.33 1354.65 1104.98L1354.04 1103.88ZM1361.35 1099.74L1360.92 1099.99L1360.3 1100.34L1360.92 1101.44C1361.23 1101.26 1361.54 1101.09 1361.85 1100.91C1362.24 1100.69 1362.63 1100.47 1363.02 1100.25L1362.39 1099.15C1362.04 1099.35 1361.7 1099.55 1361.35 1099.74ZM1380.86 1088.33C1378.85 1089.54 1376.84 1090.74 1374.82 1091.92L1375.46 1093.01C1377.48 1091.82 1379.49 1090.62 1381.51 1089.42L1380.86 1088.33ZM1394.94 1079.76C1390.92 1082.25 1386.9 1084.7 1382.87 1087.13L1383.52 1088.21C1387.55 1085.78 1391.58 1083.32 1395.61 1080.83L1394.94 1079.76ZM1402.99 1074.73C1402.32 1075.15 1401.65 1075.57 1400.97 1075.99L1401.65 1077.06C1402.32 1076.64 1402.99 1076.22 1403.66 1075.79L1402.99 1074.73ZM1421.06 1063.07C1419.06 1064.39 1417.05 1065.7 1415.04 1067.01L1415.73 1068.07C1417.74 1066.76 1419.75 1065.45 1421.76 1064.12L1421.06 1063.07ZM1435.07 1053.7C1431.07 1056.42 1427.07 1059.1 1423.07 1061.75L1423.77 1062.8C1427.77 1060.15 1431.78 1057.46 1435.78 1054.74L1435.07 1053.7ZM1442.79 1048.41C1442.14 1048.86 1441.5 1049.3 1440.86 1049.74L1441.57 1050.78L1442.22 1050.33C1442.65 1050.04 1443.08 1049.74 1443.5 1049.45L1442.79 1048.41ZM1460.12 1036.19C1458.2 1037.57 1456.27 1038.95 1454.35 1040.31L1455.08 1041.34C1457.01 1039.97 1458.93 1038.6 1460.86 1037.21L1460.12 1036.19ZM1473.59 1026.38C1469.74 1029.22 1465.9 1032.03 1462.05 1034.8L1462.79 1035.83C1466.64 1033.05 1470.49 1030.24 1474.34 1027.39L1473.59 1026.38ZM1481.27 1020.64C1480.63 1021.12 1479.99 1021.61 1479.35 1022.08L1480.11 1023.09C1480.4 1022.88 1480.69 1022.66 1480.97 1022.45C1481.33 1022.18 1481.68 1021.92 1482.03 1021.65L1481.27 1020.64ZM1528.42 783.563C1529.19 786.68 1529.93 789.796 1530.64 792.911L1531.87 792.631C1531.16 789.509 1530.42 786.386 1529.65 783.262L1528.42 783.563ZM1523.48 764.861C1524.36 767.977 1525.21 771.093 1526.03 774.208L1527.25 773.886C1526.43 770.764 1525.57 767.641 1524.69 764.518L1523.48 764.861ZM1517.97 746.549C1518.94 749.601 1519.89 752.653 1520.8 755.705L1522.01 755.342C1521.09 752.284 1520.15 749.225 1519.17 746.167L1517.97 746.549ZM1511.82 728.244C1512.9 731.294 1513.95 734.344 1514.97 737.395L1516.17 736.993C1515.14 733.936 1514.09 730.879 1513.01 727.824L1511.82 728.244ZM1505.15 710.267C1506.3 713.244 1507.43 716.223 1508.54 719.204L1509.72 718.765C1508.61 715.779 1507.48 712.794 1506.32 709.81L1505.15 710.267ZM1497.91 692.422C1499.17 695.392 1500.4 698.365 1501.6 701.339L1502.77 700.865C1501.56 697.885 1500.33 694.907 1499.07 691.931L1497.91 692.422ZM1490.16 674.797C1491.49 677.701 1492.79 680.609 1494.07 683.519L1495.22 683.011C1493.94 680.096 1492.64 677.183 1491.31 674.273L1490.16 674.797ZM1481.94 657.448C1483.36 660.333 1484.75 663.222 1486.12 666.113L1487.26 665.574C1485.89 662.677 1484.49 659.783 1483.07 656.893L1481.94 657.448ZM1473.19 640.202C1474.69 643.065 1476.17 645.932 1477.62 648.802L1478.75 648.232C1477.29 645.356 1475.81 642.484 1474.3 639.616L1473.19 640.202ZM1454.45 606.646C1456.1 609.425 1457.72 612.208 1459.33 614.996L1460.42 614.367C1458.81 611.575 1457.19 608.787 1455.54 606.003L1454.45 606.646ZM1444.46 590.24C1446.15 592.946 1447.83 595.656 1449.48 598.372L1450.56 597.716C1448.9 594.996 1447.22 592.281 1445.53 589.57L1444.46 590.24ZM1434.05 574.069C1435.83 576.753 1437.58 579.443 1439.31 582.138L1440.37 581.456C1438.64 578.757 1436.88 576.062 1435.1 573.374L1434.05 574.069ZM1423.22 558.086C1425.05 560.729 1426.87 563.379 1428.67 566.034L1429.72 565.326C1427.91 562.667 1426.09 560.013 1424.25 557.366L1423.22 558.086ZM1412.09 542.481C1413.98 545.069 1415.85 547.664 1417.71 550.265L1418.74 549.533C1416.88 546.928 1415 544.329 1413.11 541.737L1412.09 542.481ZM1400.53 527.03C1402.49 529.592 1404.44 532.16 1406.36 534.735L1407.37 533.98C1405.44 531.401 1403.5 528.828 1401.53 526.263L1400.53 527.03ZM1388.67 511.913C1390.67 514.405 1392.65 516.903 1394.62 519.409L1395.61 518.631C1393.64 516.121 1391.66 513.619 1389.65 511.124L1388.67 511.913ZM1376.47 497.052C1378.54 499.514 1380.59 501.983 1382.62 504.46L1383.59 503.66C1381.56 501.18 1379.5 498.706 1377.43 496.241L1376.47 497.052ZM1363.88 482.4C1366.01 484.822 1368.12 487.252 1370.21 489.69L1371.17 488.868C1369.07 486.427 1366.96 483.994 1364.83 481.568L1363.88 482.4ZM1351.08 468.133C1353.25 470.494 1355.4 472.864 1357.53 475.242L1358.47 474.4C1356.33 472.018 1354.18 469.645 1352.01 467.28L1351.08 468.133ZM1337.9 454.066C1340.13 456.393 1342.34 458.729 1344.54 461.073L1345.46 460.211C1343.26 457.863 1341.04 455.524 1338.81 453.194L1337.9 454.066ZM1324.45 440.307C1326.71 442.567 1328.95 444.837 1331.18 447.115L1332.08 446.233C1329.85 443.952 1327.6 441.679 1325.34 439.416L1324.45 440.307ZM1310.73 426.854C1313.05 429.078 1315.35 431.311 1317.63 433.553L1318.52 432.652C1316.23 430.407 1313.92 428.171 1311.6 425.944L1310.73 426.854ZM1296.66 413.628C1299.04 415.813 1301.39 418.007 1303.74 420.212L1304.6 419.293C1302.26 417.086 1299.89 414.888 1297.52 412.7L1296.66 413.628ZM1282.41 400.778C1284.81 402.897 1287.2 405.026 1289.57 407.165L1290.41 406.228C1288.04 404.087 1285.65 401.955 1283.25 399.833L1282.41 400.778ZM1267.85 388.186C1270.31 390.264 1272.75 392.353 1275.17 394.451L1276 393.498C1273.57 391.396 1271.13 389.305 1268.67 387.224L1267.85 388.186ZM1253.01 375.877C1255.51 377.902 1257.99 379.938 1260.45 381.984L1261.26 381.014C1258.79 378.965 1256.3 376.926 1253.81 374.898L1253.01 375.877ZM1237.99 363.928C1240.52 365.898 1243.03 367.879 1245.54 369.87L1246.32 368.883C1243.82 366.889 1241.3 364.906 1238.76 362.933L1237.99 363.928ZM1222.66 352.244C1225.24 354.169 1227.81 356.105 1230.36 358.052L1231.13 357.05C1228.57 355.1 1226 353.161 1223.42 351.234L1222.66 352.244ZM1207.13 340.896C1209.73 342.755 1212.32 344.627 1214.89 346.509L1215.64 345.491C1213.06 343.606 1210.46 341.732 1207.86 339.87L1207.13 340.896ZM1191.38 329.878C1194.02 331.691 1196.66 333.515 1199.29 335.352L1200.01 334.318C1197.38 332.48 1194.74 330.653 1192.09 328.838L1191.38 329.878ZM1175.35 319.149C1178.04 320.913 1180.72 322.689 1183.39 324.477L1184.1 323.429C1181.42 321.638 1178.73 319.86 1176.04 318.094L1175.35 319.149ZM1159.17 308.794C1161.88 310.492 1164.59 312.203 1167.28 313.926L1167.96 312.864C1165.26 311.139 1162.55 309.426 1159.84 307.725L1159.17 308.794ZM1142.75 298.757C1145.51 300.405 1148.26 302.065 1150.99 303.738L1151.65 302.662C1148.91 300.987 1146.16 299.324 1143.4 297.675L1142.75 298.757ZM1126.09 289.038C1128.89 290.63 1131.67 292.236 1134.45 293.855L1135.08 292.766C1132.31 291.145 1129.52 289.537 1126.72 287.942L1126.09 289.038ZM1109.32 279.709C1112.13 281.237 1114.94 282.779 1117.74 284.334L1118.35 283.232C1115.55 281.675 1112.74 280.131 1109.92 278.601L1109.32 279.709ZM1092.3 270.703C1095.16 272.177 1098 273.664 1100.84 275.165L1101.43 274.051C1098.59 272.548 1095.74 271.058 1092.88 269.583L1092.3 270.703ZM1075.09 262.051C1077.97 263.461 1080.84 264.886 1083.7 266.324L1084.27 265.197C1081.4 263.757 1078.53 262.331 1075.64 260.919L1075.09 262.051ZM1057.75 253.783C1060.66 255.133 1063.56 256.497 1066.45 257.875L1066.99 256.737C1064.1 255.357 1061.19 253.991 1058.28 252.639L1057.75 253.783ZM1040.19 245.859C1043.13 247.151 1046.07 248.457 1049 249.778L1049.52 248.628C1046.59 247.306 1043.65 245.998 1040.7 244.704L1040.19 245.859ZM1022.49 238.319C1025.45 239.541 1028.39 240.778 1031.33 242.03L1031.83 240.87C1028.88 239.617 1025.93 238.378 1022.97 237.154L1022.49 238.319ZM1004.65 231.164C1007.64 232.326 1010.62 233.504 1013.6 234.696L1014.07 233.526C1011.09 232.332 1008.1 231.152 1005.11 229.988L1004.65 231.164ZM986.609 224.372C989.632 225.473 992.648 226.59 995.655 227.722L996.099 226.542C993.088 225.408 990.068 224.29 987.04 223.187L986.609 224.372ZM968.482 217.989C971.512 219.02 974.534 220.065 977.547 221.126L977.966 219.937C974.948 218.874 971.922 217.827 968.888 216.796L968.482 217.989ZM950.21 211.997C953.27 212.964 956.324 213.947 959.369 214.946L959.762 213.748C956.712 212.747 953.655 211.763 950.589 210.794L950.21 211.997ZM931.754 206.386C934.845 207.289 937.928 208.208 941.004 209.143L941.371 207.937C938.291 207 935.203 206.08 932.107 205.176L931.754 206.386ZM913.27 201.206C916.362 202.036 919.446 202.882 922.523 203.745L922.864 202.531C919.782 201.667 916.693 200.82 913.597 199.988L913.27 201.206ZM894.636 196.423C897.755 197.187 900.868 197.968 903.974 198.765L904.287 197.544C901.177 196.746 898.06 195.964 894.936 195.199L894.636 196.423ZM875.84 192.04C878.985 192.737 882.124 193.451 885.256 194.181L885.543 192.953C882.406 192.222 879.262 191.507 876.112 190.809L875.84 192.04ZM857.073 188.102C860.214 188.725 863.348 189.364 866.476 190.021L866.735 188.787C863.602 188.129 860.463 187.489 857.318 186.865L857.073 188.102ZM838.153 184.57C841.319 185.124 844.479 185.696 847.632 186.285L847.863 185.045C844.705 184.456 841.541 183.883 838.371 183.328L838.153 184.57ZM819.114 181.457C822.295 181.94 825.469 182.441 828.638 182.959L828.841 181.715C825.668 181.196 822.489 180.694 819.303 180.21L819.114 181.457ZM800.127 178.79C803.303 179.199 806.473 179.627 809.638 180.071L809.813 178.823C806.644 178.377 803.469 177.95 800.288 177.539L800.127 178.79ZM781.004 176.542C784.202 176.882 787.395 177.239 790.582 177.613L790.729 176.361C787.537 175.986 784.34 175.628 781.137 175.289L781.004 176.542ZM761.803 174.727C765.005 174.993 768.202 175.277 771.393 175.579L771.512 174.323C768.315 174.021 765.114 173.737 761.907 173.47L761.803 174.727ZM742.683 173.356C745.88 173.549 749.071 173.76 752.258 173.988L752.348 172.73C749.157 172.502 745.96 172.291 742.759 172.098L742.683 173.356ZM723.445 172.416C726.661 172.537 729.872 172.675 733.078 172.832L733.14 171.572C729.929 171.416 726.713 171.277 723.492 171.156L723.445 172.416ZM704.163 171.915C707.374 171.961 710.581 172.027 713.782 172.11L713.815 170.849C710.609 170.766 707.397 170.701 704.182 170.654L704.163 171.915ZM685.004 171.853C688.206 171.827 691.404 171.819 694.597 171.829L694.601 170.569C691.403 170.558 688.201 170.566 684.994 170.592L685.004 171.853ZM665.742 172.229C668.961 172.13 672.175 172.049 675.386 171.986L675.361 170.725C672.146 170.788 668.927 170.869 665.703 170.969L665.742 172.229ZM646.461 173.046C649.669 172.874 652.874 172.72 656.075 172.584L656.021 171.324C652.816 171.46 649.607 171.614 646.393 171.787L646.461 173.046ZM627.358 174.291C630.549 174.046 633.737 173.821 636.921 173.614L636.839 172.355C633.65 172.563 630.458 172.789 627.262 173.033L627.358 174.291ZM608.168 175.977C611.374 175.659 614.575 175.359 617.774 175.078L617.663 173.822C614.46 174.103 611.254 174.403 608.044 174.722L608.168 175.977ZM588.959 178.104C592.156 177.714 595.351 177.342 598.542 176.988L598.403 175.735C595.207 176.089 592.008 176.461 588.806 176.853L588.959 178.104ZM570.009 180.635C573.173 180.177 576.335 179.737 579.493 179.315L579.326 178.065C576.163 178.487 572.997 178.928 569.828 179.387L570.009 180.635ZM550.987 183.609C554.163 183.076 557.336 182.562 560.507 182.066L560.312 180.82C557.137 181.317 553.959 181.831 550.778 182.365L550.987 183.609ZM531.909 187.029C535.092 186.421 538.272 185.833 541.45 185.263L541.228 184.022C538.045 184.592 534.86 185.182 531.672 185.79L531.909 187.029ZM513.207 190.809C516.328 190.142 519.448 189.494 522.565 188.864L522.315 187.628C519.194 188.259 516.07 188.908 512.943 189.576L513.207 190.809ZM494.447 195.028C497.578 194.288 500.707 193.566 503.834 192.863L503.557 191.633C500.426 192.337 497.292 193.06 494.157 193.801L494.447 195.028ZM475.632 199.693C478.772 198.878 481.91 198.082 485.046 197.304L484.743 196.081C481.603 196.859 478.46 197.656 475.316 198.472L475.632 199.693ZM457.178 204.692C460.243 203.827 463.305 202.98 466.366 202.15L466.036 200.933C462.971 201.764 459.904 202.612 456.836 203.479L457.178 204.692ZM438.77 210.1C441.842 209.162 444.912 208.243 447.98 207.342L447.624 206.132C444.552 207.034 441.478 207.955 438.402 208.894L438.77 210.1ZM420.32 215.946C423.398 214.935 426.475 213.942 429.55 212.968L429.169 211.766C426.09 212.742 423.009 213.735 419.927 214.748L420.32 215.946ZM402.118 222.134C405.111 221.082 408.103 220.047 411.093 219.03L410.687 217.836C407.693 218.855 404.697 219.891 401.7 220.944L402.118 222.134ZM384.144 228.658C387.143 227.535 390.14 226.43 393.135 225.342L392.705 224.157C389.705 225.246 386.704 226.352 383.702 227.477L384.144 228.658ZM366.139 235.608C369.143 234.414 372.145 233.238 375.145 232.079L374.691 230.903C371.687 232.063 368.681 233.241 365.674 234.436L366.139 235.608ZM348.182 242.959C351.165 241.703 354.146 240.465 357.127 239.245L356.649 238.078C353.665 239.3 350.679 240.539 347.693 241.797L348.182 242.959ZM330.715 250.513C333.628 249.22 336.54 247.944 339.451 246.685L338.951 245.527C336.036 246.788 333.12 248.066 330.203 249.361L330.715 250.513ZM313.227 258.481C316.143 257.118 319.059 255.773 321.974 254.445L321.451 253.298C318.533 254.627 315.613 255.974 312.693 257.338L313.227 258.481ZM295.722 266.865C298.641 265.433 301.559 264.018 304.477 262.621L303.932 261.483C301.011 262.883 298.089 264.299 295.166 265.733L295.722 266.865ZM278.585 275.474C281.402 274.025 284.219 272.594 287.036 271.179L286.47 270.052C283.65 271.469 280.829 272.902 278.008 274.352L278.585 275.474ZM261.674 284.361C264.493 282.847 267.312 281.349 270.131 279.868L269.544 278.751C266.722 280.234 263.9 281.734 261.077 283.25L261.674 284.361ZM244.754 293.649C247.575 292.067 250.395 290.502 253.215 288.955L252.608 287.849C249.785 289.399 246.962 290.965 244.138 292.549L244.754 293.649ZM227.827 303.34C230.649 301.691 233.47 300.059 236.291 298.443L235.665 297.349C232.84 298.966 230.016 300.6 227.191 302.251L227.827 303.34ZM211.527 313.054C214.242 311.405 216.956 309.772 219.67 308.154L219.025 307.071C216.307 308.69 213.59 310.326 210.872 311.977L211.527 313.054ZM195.239 323.142C197.954 321.428 200.669 319.731 203.383 318.05L202.719 316.978C200.002 318.661 197.284 320.36 194.566 322.075L195.239 323.142ZM178.951 333.613C181.666 331.835 184.381 330.074 187.095 328.329L186.413 327.268C183.696 329.015 180.978 330.778 178.261 332.558L178.951 333.613ZM162.794 344.385C165.465 342.572 168.136 340.775 170.808 338.993L170.109 337.944C167.434 339.728 164.76 341.527 162.086 343.341L162.794 344.385ZM147.172 355.168C149.775 353.34 152.379 351.528 154.982 349.731L154.266 348.693C151.66 350.492 149.054 352.306 146.448 354.136L147.172 355.168ZM131.556 366.314C134.158 364.426 136.761 362.553 139.363 360.695L138.631 359.669C136.025 361.528 133.421 363.403 130.816 365.293L131.556 366.314ZM115.948 377.826C118.549 375.877 121.15 373.943 123.751 372.024L123.003 371.009C120.399 372.93 117.795 374.866 115.192 376.817L115.948 377.826ZM1475.17 482.542C1473.28 479.963 1471.28 477.452 1469.18 475.007L1470.13 474.185C1472.26 476.654 1474.28 479.191 1476.19 481.796L1475.17 482.542ZM1462.65 467.955C1460.44 465.741 1458.14 463.586 1455.75 461.491L1456.58 460.543C1458.99 462.656 1461.31 464.83 1463.54 467.065L1462.65 467.955ZM1448.31 455.385C1445.74 453.408 1443.08 451.49 1440.33 449.631L1441.03 448.587C1443.8 450.46 1446.48 452.392 1449.08 454.385L1448.31 455.385ZM1432.43 444.594C1429.75 442.976 1426.98 441.407 1424.15 439.887L1424.75 438.776C1427.6 440.305 1430.38 441.884 1433.08 443.514L1432.43 444.594ZM1415.44 435.473C1412.54 434.086 1409.58 432.744 1406.54 431.449L1407.04 430.289C1410.09 431.592 1413.07 432.94 1415.99 434.335L1415.44 435.473ZM1397.88 427.935C1394.93 426.804 1391.93 425.712 1388.87 424.66L1389.29 423.467C1392.35 424.525 1395.37 425.622 1398.33 426.758L1397.88 427.935ZM1379.55 421.619C1376.47 420.669 1373.33 419.756 1370.15 418.88L1370.49 417.665C1373.68 418.544 1376.82 419.46 1379.92 420.414L1379.55 421.619ZM1361.1 416.518C1358.04 415.763 1354.94 415.039 1351.8 414.347L1352.07 413.115C1355.22 413.81 1358.33 414.536 1361.4 415.294L1361.1 416.518ZM1342.25 412.364C1339.02 411.734 1335.76 411.136 1332.46 410.568L1332.67 409.326C1335.98 409.895 1339.26 410.495 1342.49 411.126L1342.25 412.364ZM1323.19 409.073C1320.1 408.605 1316.97 408.163 1313.81 407.746L1313.98 406.496C1317.14 406.914 1320.28 407.357 1323.38 407.826L1323.19 409.073ZM1304.24 406.573C1301.02 406.207 1297.77 405.866 1294.49 405.551L1294.61 404.296C1297.9 404.612 1301.15 404.953 1304.38 405.32L1304.24 406.573ZM1284.65 404.688C1281.56 404.443 1278.44 404.219 1275.3 404.015L1275.38 402.757C1278.53 402.961 1281.65 403.185 1284.75 403.431L1284.65 404.688ZM1265.81 403.47C1262.62 403.309 1259.4 403.169 1256.17 403.05L1256.21 401.79C1259.46 401.909 1262.67 402.049 1265.87 402.21L1265.81 403.47ZM1246.39 402.755C1243.11 402.678 1239.8 402.621 1236.47 402.585L1236.49 401.324C1239.82 401.361 1243.13 401.417 1246.42 401.495L1246.39 402.755ZM1227.06 402.537C1223.92 402.539 1220.75 402.559 1217.57 402.597L1217.55 401.336C1220.74 401.298 1223.91 401.279 1227.06 401.277L1227.06 402.537ZM1207.96 402.762C1204.74 402.834 1201.5 402.924 1198.24 403.031L1198.2 401.771C1201.46 401.664 1204.71 401.574 1207.93 401.501L1207.96 402.762ZM1188.42 403.406C1185.21 403.544 1181.98 403.699 1178.74 403.87L1178.68 402.611C1181.92 402.44 1185.15 402.285 1188.37 402.146L1188.42 403.406ZM1169.3 404.412C1166.13 404.608 1162.95 404.818 1159.76 405.044L1159.67 403.786C1162.87 403.56 1166.05 403.349 1169.22 403.153L1169.3 404.412ZM1150.15 405.766C1146.93 406.022 1143.69 406.292 1140.45 406.577L1140.34 405.321C1143.59 405.036 1146.82 404.765 1150.05 404.509L1150.15 405.766ZM1130.67 407.477C1127.49 407.782 1124.29 408.102 1121.09 408.435L1120.95 407.181C1124.17 406.848 1127.36 406.528 1130.55 406.221L1130.67 407.477ZM1111.64 409.453C1108.48 409.805 1105.32 410.17 1102.14 410.549L1101.99 409.296C1105.17 408.918 1108.34 408.552 1111.5 408.2L1111.64 409.453ZM1092.56 411.722C1089.36 412.126 1086.15 412.542 1082.93 412.972L1082.76 411.722C1085.99 411.292 1089.2 410.875 1092.41 410.471L1092.56 411.722ZM1073.24 414.298C1070.05 414.746 1066.85 415.206 1063.64 415.678L1063.46 414.43C1066.67 413.958 1069.87 413.498 1073.06 413.05L1073.24 414.298ZM1054.24 417.092C1051.1 417.575 1047.94 418.069 1044.78 418.575L1044.59 417.33C1047.75 416.824 1050.9 416.329 1054.05 415.846L1054.24 417.092ZM1035.28 420.126C1032.11 420.655 1028.93 421.194 1025.74 421.745L1025.52 420.503C1028.71 419.951 1031.9 419.411 1035.08 418.883L1035.28 420.126ZM1016.14 423.431C1012.94 424.004 1009.73 424.588 1006.51 425.184L1006.28 423.944C1009.5 423.348 1012.72 422.763 1015.92 422.19L1016.14 423.431ZM997.147 426.942C994.024 427.538 990.895 428.144 987.76 428.76L987.517 427.523C990.654 426.906 993.786 426.3 996.911 425.704L997.147 426.942ZM978.338 430.639C975.192 431.275 972.04 431.921 968.883 432.578L968.626 431.343C971.786 430.686 974.94 430.04 978.088 429.403L978.338 430.639ZM959.396 434.576C956.229 435.252 953.057 435.938 949.879 436.634L949.61 435.402C952.789 434.706 955.964 434.02 959.133 433.343L959.396 434.576ZM940.413 438.733C937.31 439.43 934.204 440.135 931.094 440.85L930.811 439.621C933.924 438.906 937.032 438.2 940.136 437.503L940.413 438.733ZM921.751 443.021C918.633 443.754 915.511 444.496 912.386 445.247L912.091 444.021C915.219 443.269 918.342 442.527 921.463 441.794L921.751 443.021ZM903 447.527C899.868 448.296 896.732 449.073 893.594 449.86L893.288 448.637C896.428 447.85 899.565 447.071 902.699 446.302L903 447.527ZM884.17 452.246C881.056 453.043 877.939 453.848 874.819 454.662L874.501 453.442C877.622 452.628 880.742 451.822 883.858 451.025L884.17 452.246ZM865.55 457.104C862.458 457.926 859.365 458.756 856.268 459.595L855.939 458.378C859.037 457.539 862.133 456.708 865.226 455.885L865.55 457.104ZM846.975 462.135C843.875 462.99 840.774 463.853 837.671 464.725L837.33 463.511C840.435 462.639 843.538 461.775 846.64 460.92L846.975 462.135ZM828.358 467.363C825.253 468.25 822.146 469.145 819.038 470.049L818.686 468.838C821.796 467.934 824.904 467.038 828.012 466.15L828.358 467.363ZM809.774 472.764C806.706 473.671 803.636 474.585 800.567 475.508L800.204 474.3C803.275 473.377 806.347 472.462 809.417 471.555L809.774 472.764ZM791.356 478.297C788.285 479.234 785.214 480.179 782.143 481.132L781.769 479.927C784.842 478.974 787.915 478.029 790.988 477.091L791.356 478.297ZM772.929 484.011C769.858 484.978 766.787 485.953 763.717 486.935L763.333 485.734C766.405 484.751 769.478 483.776 772.551 482.808L772.929 484.011ZM754.506 489.903C751.446 490.897 748.386 491.897 745.327 492.905L744.933 491.708C747.993 490.699 751.055 489.698 754.117 488.704L754.506 489.903ZM736.189 495.939C733.144 496.957 730.099 497.982 727.056 499.015L726.651 497.82C729.696 496.788 732.742 495.762 735.789 494.743L736.189 495.939ZM717.931 502.132C714.891 503.178 711.852 504.231 708.815 505.291L708.399 504.101C711.438 503.04 714.479 501.987 717.521 500.94L717.931 502.132ZM699.708 508.492C696.674 509.565 693.642 510.646 690.612 511.733L690.187 510.546C693.218 509.458 696.252 508.377 699.287 507.303L699.708 508.492ZM681.532 515.013C678.509 516.113 675.488 517.219 672.47 518.332L672.034 517.149C675.054 516.035 678.076 514.928 681.101 513.828L681.532 515.013ZM663.423 521.69C660.41 522.816 657.4 523.948 654.392 525.087L653.946 523.908C656.955 522.768 659.967 521.635 662.982 520.509L663.423 521.69ZM645.38 528.523C642.378 529.675 639.38 530.833 636.386 531.998L635.929 530.822C638.925 529.657 641.925 528.498 644.928 527.346L645.38 528.523ZM627.412 535.51C624.421 536.688 621.434 537.873 618.45 539.064L617.983 537.893C620.968 536.701 623.957 535.516 626.95 534.337L627.412 535.51ZM609.473 542.67C606.485 543.879 603.501 545.093 600.521 546.314L600.043 545.147C603.025 543.926 606.011 542.711 609.001 541.501L609.473 542.67ZM591.594 549.995C588.623 551.227 585.657 552.466 582.695 553.711L582.207 552.549C585.17 551.303 588.138 550.064 591.111 548.83L591.594 549.995ZM573.824 557.464C570.872 558.721 567.925 559.984 564.983 561.253L564.484 560.095C567.428 558.825 570.377 557.562 573.33 556.304L573.824 557.464ZM556.16 565.082C553.195 566.378 550.235 567.679 547.281 568.986L546.771 567.833C549.726 566.525 552.688 565.223 555.655 563.927L556.16 565.082ZM538.436 572.925C535.494 574.243 532.558 575.568 529.628 576.898L529.106 575.75C532.038 574.419 534.976 573.094 537.92 571.774L538.436 572.925ZM520.857 580.906C517.939 582.248 515.028 583.595 512.124 584.948L511.592 583.805C514.498 582.451 517.41 581.103 520.33 579.761L520.857 580.906ZM503.432 589.024C500.534 590.391 497.644 591.764 494.76 593.142L494.216 592.005C497.102 590.625 499.994 589.251 502.894 587.883L503.432 589.024ZM485.998 597.359C483.085 598.77 480.179 600.186 477.282 601.608L476.726 600.476C479.626 599.053 482.533 597.636 485.448 596.224L485.998 597.359ZM468.613 605.891C465.731 607.324 462.858 608.763 459.992 610.207L459.425 609.081C462.292 607.636 465.168 606.196 468.051 604.762L468.613 605.891ZM451.422 614.554C448.574 616.009 445.735 617.469 442.904 618.934L442.325 617.814C445.157 616.348 447.999 614.887 450.849 613.432L451.422 614.554ZM434.385 623.373C431.504 624.885 428.632 626.402 425.769 627.924L425.177 626.811C428.042 625.287 430.916 623.769 433.8 622.256L434.385 623.373ZM417.212 632.508C414.37 634.041 411.538 635.579 408.716 637.122L408.111 636.016C410.935 634.472 413.769 632.932 416.614 631.398L417.212 632.508ZM400.281 641.768C397.48 643.322 394.69 644.881 391.91 646.445L391.292 645.346C394.074 643.781 396.866 642.221 399.669 640.666L400.281 641.768ZM383.604 651.151C380.799 652.752 378.005 654.358 375.224 655.969L374.592 654.878C377.376 653.266 380.172 651.658 382.979 650.056L383.604 651.151ZM366.799 660.885C364.003 662.529 361.219 664.177 358.449 665.831L357.802 664.748C360.576 663.093 363.362 661.443 366.16 659.798L366.799 660.885ZM350.174 670.807C347.429 672.471 344.697 674.14 341.977 675.813L341.317 674.739C344.038 673.064 346.773 671.394 349.521 669.729L350.174 670.807ZM317.555 691.206C314.817 692.974 312.096 694.746 309.389 696.523L308.697 695.469C311.406 693.69 314.131 691.916 316.87 690.147L317.555 691.206ZM301.317 701.869C298.642 703.655 295.983 705.447 293.34 707.243L292.631 706.2C295.277 704.402 297.939 702.609 300.617 700.82L301.317 701.869ZM285.46 712.645C282.85 714.45 280.256 716.26 277.679 718.074L276.953 717.043C279.533 715.226 282.13 713.415 284.743 711.608L285.46 712.645ZM269.729 723.724C267.071 725.63 264.432 727.541 261.812 729.457L261.067 728.439C263.69 726.521 266.333 724.608 268.994 722.699L269.729 723.724ZM254.009 735.219C251.428 737.144 248.866 739.074 246.324 741.008L245.56 740.004C248.106 738.068 250.671 736.136 253.256 734.208L254.009 735.219ZM238.757 746.823C236.255 748.766 233.773 750.713 231.312 752.664L230.529 751.676C232.993 749.722 235.479 747.773 237.984 745.827L238.757 746.823ZM223.689 758.775C221.143 760.839 218.62 762.907 216.12 764.98L215.315 764.009C217.818 761.934 220.345 759.862 222.895 757.796L223.689 758.775ZM208.694 771.211C206.242 773.293 203.815 775.379 201.412 777.469L200.584 776.517C202.991 774.424 205.422 772.335 207.878 770.25L208.694 771.211ZM194.276 783.751C191.91 785.86 189.568 787.974 187.252 790.092L186.401 789.161C188.721 787.04 191.067 784.923 193.437 782.809L194.276 783.751ZM180.014 796.802C177.63 799.043 175.275 801.289 172.95 803.538L172.073 802.632C174.403 800.378 176.762 798.129 179.151 795.884L180.014 796.802ZM166.063 810.298C163.797 812.556 161.561 814.817 159.356 817.082L158.453 816.202C160.662 813.933 162.903 811.667 165.173 809.405L166.063 810.298ZM152.832 823.888C150.586 826.269 148.373 828.655 146.195 831.044L145.264 830.194C147.446 827.8 149.664 825.409 151.915 823.023L152.832 823.888ZM139.656 838.347C137.513 840.785 135.406 843.227 133.336 845.673L132.374 844.858C134.449 842.407 136.561 839.959 138.709 837.515L139.656 838.347ZM127.239 853.02C125.244 855.472 123.286 857.928 121.367 860.387L120.373 859.611C122.298 857.145 124.26 854.683 126.261 852.224L127.239 853.02ZM115.46 868.129C113.493 870.767 111.571 873.409 109.695 876.053L108.666 875.323C110.549 872.671 112.477 870.021 114.449 867.376L115.46 868.129ZM104.201 883.996C102.416 886.646 100.677 889.3 98.9845 891.956L97.921 891.279C99.6192 888.613 101.364 885.951 103.155 883.291L104.201 883.996ZM94.0486 899.933C92.342 902.775 90.6896 905.621 89.0924 908.469L87.9926 907.852C89.5961 904.993 91.2547 902.137 92.9676 899.284L94.0486 899.933ZM84.462 917.03C82.9745 919.886 81.5431 922.745 80.169 925.605L79.0325 925.059C80.4126 922.186 81.85 919.315 83.3436 916.448L84.462 917.03ZM76.2188 934.192C74.9154 937.157 73.6742 940.124 72.4961 943.093L71.3241 942.628C72.5079 939.644 73.755 936.663 75.0646 933.684L76.2188 934.192ZM69.075 952.223C68.0018 955.268 66.996 958.314 66.0588 961.361L64.8536 960.99C65.796 957.927 66.8071 954.864 67.8859 951.804L69.075 952.223ZM63.4537 970.504C62.6404 973.607 61.8992 976.711 61.2312 979.815L59.9985 979.549C60.6705 976.427 61.4161 973.305 62.234 970.185L63.4537 970.504ZM59.4124 989.341C58.8836 992.517 58.4327 995.692 58.0609 998.868L56.8084 998.721C57.1827 995.525 57.6366 992.329 58.1686 989.134L59.4124 989.341ZM57.1838 1008.39C56.9705 1011.58 56.8381 1014.77 56.788 1017.95L55.5272 1017.93C55.5777 1014.72 55.7109 1011.52 55.9257 1008.31L57.1838 1008.39ZM56.8873 1027.55C57.0043 1030.75 57.2056 1033.95 57.4925 1037.15L56.2367 1037.26C55.9477 1034.04 55.745 1030.82 55.6272 1027.6L56.8873 1027.55ZM58.6114 1046.73C58.841 1048.33 59.0925 1049.93 59.3658 1051.52L58.123 1051.73C57.8478 1050.13 57.5946 1048.52 57.3634 1046.91L58.6114 1046.73Z" fill="white"/>
</svg>
